<?xml version="1.0" encoding="UTF-8" standalone="no"?><!DOCTYPE svg PUBLIC "-//W3C//DTD SVG 1.1//EN" "http://www.w3.org/Graphics/SVG/1.1/DTD/svg11.dtd"><svg width="100%" height="100%" viewBox="0 0 1313 985" version="1.1" xmlns="http://www.w3.org/2000/svg" xmlns:xlink="http://www.w3.org/1999/xlink" xml:space="preserve" xmlns:serif="http://www.serif.com/" style="fill-rule:evenodd;clip-rule:evenodd;stroke-linecap:square;stroke-miterlimit:10;"><g transform="matrix(34.3758,0,0,34.3758,873.142,56.8359)"></g><text x="408.985px" y="56.836px" style="font-family:'Helvetica-Bold', 'Helvetica';font-weight:700;font-size:34.376px;">Histogram of Log Evidences</text><g transform="matrix(31.2492,0,0,31.2492,350.854,919.531)"></g><text x="253.551px" y="919.531px" style="font-family:'Helvetica';font-size:31.249px;fill:#212121;">-10000</text><g transform="matrix(31.2492,0,0,31.2492,528.965,919.531)"></g><text x="449.041px" y="919.531px" style="font-family:'Helvetica';font-size:31.249px;fill:#212121;">-8000</text><g transform="matrix(31.2492,0,0,31.2492,713.908,919.531)"></g><text x="633.984px" y="919.531px" style="font-family:'Helvetica';font-size:31.249px;fill:#212121;">-6000</text><g transform="matrix(31.2492,0,0,31.2492,898.851,919.531)"></g><text x="818.928px" y="919.531px" style="font-family:'Helvetica';font-size:31.249px;fill:#212121;">-4000</text><g transform="matrix(31.2492,0,0,31.2492,1083.79,919.531)"></g><text x="1003.87px" y="919.531px" style="font-family:'Helvetica';font-size:31.249px;fill:#212121;">-2000</text><g transform="matrix(34.3758,0,0,34.3758,773.163,964.844)"></g><text x="564.844px" y="964.844px" style="font-family:'Helvetica';font-size:34.376px;fill:#212121;">Log Evidence</text><g transform="matrix(31.2492,0,0,31.2492,154.879,887.109)"></g><text x="137.5px" y="887.109px" style="font-family:'Helvetica';font-size:31.249px;fill:#212121;">0</text><g transform="matrix(31.2492,0,0,31.2492,154.879,726.328)"></g><text x="137.5px" y="726.328px" style="font-family:'Helvetica';font-size:31.249px;fill:#212121;">5</text><g transform="matrix(31.2492,0,0,31.2492,153.509,565.547)"></g><text x="118.75px" y="565.547px" style="font-family:'Helvetica';font-size:31.249px;fill:#212121;">10</text><g transform="matrix(31.2492,0,0,31.2492,153.509,404.766)"></g><text x="118.75px" y="404.766px" style="font-family:'Helvetica';font-size:31.249px;fill:#212121;">15</text><g transform="matrix(31.2492,0,0,31.2492,153.509,243.984)"></g><text x="118.75px" y="243.984px" style="font-family:'Helvetica';font-size:31.249px;fill:#212121;">20</text><g transform="matrix(31.2492,0,0,31.2492,153.509,83.2031)"></g><text x="118.75px" y="83.203px" style="font-family:'Helvetica';font-size:31.249px;fill:#212121;">25</text><g transform="matrix(-4.33333e-08,-1,1,-4.33333e-08,445.312,-1045.31)"><g transform="matrix(34.3758,0,0,34.3758,-1448.92,-345.313)"></g><text x="-1611.33px" y="-345.313px" style="font-family:'Helvetica';font-size:34.376px;fill:#212121;">Frequency</text></g><path d="M309.801,876.563l0,-225.094l-92.471,-0l-0,225.093l92.471,0Zm92.472,0l-0,-803.906l-92.472,0l0,803.906l92.472,0Zm92.471,0l0,-707.437l-92.471,0l-0,707.437l92.471,0Zm92.472,0l-0,-225.093l-92.472,-0l0,225.093l92.472,0Zm184.943,-192.937l-184.943,-0l-0,192.937l184.943,0l0,-192.937Zm92.472,192.937l-0,-32.156l-92.472,0l0,32.156l92.472,0Zm277.414,0l0,-32.156l-92.471,0l-0,32.156l92.471,0Z" style="fill:#0072bd;fill-opacity:0.6;fill-rule:nonzero;"/><path d="M217.33,876.563l-0,-225.094l92.471,-0" style="fill:none;fill-rule:nonzero;stroke:#000;stroke-width:1.56px;"/><path d="M309.801,876.563l0,-803.907l92.472,0l-0,803.907" style="fill:none;fill-rule:nonzero;stroke:#000;stroke-width:1.56px;"/><path d="M402.273,169.125l92.471,0l0,707.437" style="fill:none;fill-rule:nonzero;stroke:#000;stroke-width:1.56px;"/><path d="M494.744,651.469l92.472,-0l-0,225.093" style="fill:none;fill-rule:nonzero;stroke:#000;stroke-width:1.56px;"/><path d="M587.216,683.625l92.471,-0l0,192.938" style="fill:none;fill-rule:nonzero;stroke:#000;stroke-width:1.56px;"/><path d="M679.688,683.625l92.471,-0l0,192.938" style="fill:none;fill-rule:nonzero;stroke:#000;stroke-width:1.56px;"/><path d="M772.159,844.406l92.472,0l-0,32.156" style="fill:none;fill-rule:nonzero;stroke:#000;stroke-width:1.56px;"/><path d="M864.631,876.563l92.471,-0" style="fill:none;fill-rule:nonzero;stroke:#000;stroke-width:1.56px;"/><path d="M957.102,876.563l92.472,-0" style="fill:none;fill-rule:nonzero;stroke:#000;stroke-width:1.56px;"/><path d="M1049.57,876.563l-0,-32.157l92.471,0l0,32.157" style="fill:none;fill-rule:nonzero;stroke:#000;stroke-width:1.56px;"/><path d="M171.094,876.563l1017.19,-0" style="fill:none;fill-rule:nonzero;stroke:#212121;stroke-width:1.56px;stroke-linejoin:round;"/><path d="M171.094,72.656l1017.19,0" style="fill:none;fill-rule:nonzero;stroke:#212121;stroke-width:1.56px;stroke-linejoin:round;"/><path d="M309.801,876.563l0,-10.172" style="fill:none;fill-rule:nonzero;stroke:#212121;stroke-width:1.56px;stroke-linejoin:round;"/><path d="M494.744,876.563l0,-10.172" style="fill:none;fill-rule:nonzero;stroke:#212121;stroke-width:1.56px;stroke-linejoin:round;"/><path d="M679.688,876.562l-0,-10.171" style="fill:none;fill-rule:nonzero;stroke:#212121;stroke-width:1.56px;stroke-linejoin:round;"/><path d="M864.631,876.563l-0,-10.172" style="fill:none;fill-rule:nonzero;stroke:#212121;stroke-width:1.56px;stroke-linejoin:round;"/><path d="M1049.57,876.562l-0,-10.171" style="fill:none;fill-rule:nonzero;stroke:#212121;stroke-width:1.56px;stroke-linejoin:round;"/><path d="M309.801,72.656l0,10.172" style="fill:none;fill-rule:nonzero;stroke:#212121;stroke-width:1.56px;stroke-linejoin:round;"/><path d="M494.744,72.656l0,10.172" style="fill:none;fill-rule:nonzero;stroke:#212121;stroke-width:1.56px;stroke-linejoin:round;"/><path d="M679.688,72.656l-0,10.172" style="fill:none;fill-rule:nonzero;stroke:#212121;stroke-width:1.56px;stroke-linejoin:round;"/><path d="M864.631,72.656l-0,10.172" style="fill:none;fill-rule:nonzero;stroke:#212121;stroke-width:1.56px;stroke-linejoin:round;"/><path d="M1049.57,72.656l-0,10.172" style="fill:none;fill-rule:nonzero;stroke:#212121;stroke-width:1.56px;stroke-linejoin:round;"/><path d="M171.094,876.563l-0,-803.907" style="fill:none;fill-rule:nonzero;stroke:#212121;stroke-width:1.56px;stroke-linejoin:round;"/><path d="M1188.28,876.563l0,-803.907" style="fill:none;fill-rule:nonzero;stroke:#212121;stroke-width:1.56px;stroke-linejoin:round;"/><path d="M171.094,876.563l10.172,-0" style="fill:none;fill-rule:nonzero;stroke:#212121;stroke-width:1.56px;stroke-linejoin:round;"/><path d="M171.094,715.781l10.172,0" style="fill:none;fill-rule:nonzero;stroke:#212121;stroke-width:1.56px;stroke-linejoin:round;"/><path d="M171.094,555l10.172,0" style="fill:none;fill-rule:nonzero;stroke:#212121;stroke-width:1.56px;stroke-linejoin:round;"/><path d="M171.094,394.219l10.172,-0" style="fill:none;fill-rule:nonzero;stroke:#212121;stroke-width:1.56px;stroke-linejoin:round;"/><path d="M171.094,233.437l10.172,0" style="fill:none;fill-rule:nonzero;stroke:#212121;stroke-width:1.56px;stroke-linejoin:round;"/><path d="M171.094,72.656l10.172,0" style="fill:none;fill-rule:nonzero;stroke:#212121;stroke-width:1.56px;stroke-linejoin:round;"/><path d="M1188.28,876.563l-10.172,-0" style="fill:none;fill-rule:nonzero;stroke:#212121;stroke-width:1.56px;stroke-linejoin:round;"/><path d="M1188.28,715.781l-10.172,0" style="fill:none;fill-rule:nonzero;stroke:#212121;stroke-width:1.56px;stroke-linejoin:round;"/><path d="M1188.28,555l-10.172,0" style="fill:none;fill-rule:nonzero;stroke:#212121;stroke-width:1.56px;stroke-linejoin:round;"/><path d="M1188.28,394.219l-10.172,-0" style="fill:none;fill-rule:nonzero;stroke:#212121;stroke-width:1.56px;stroke-linejoin:round;"/><path d="M1188.28,233.437l-10.172,0" style="fill:none;fill-rule:nonzero;stroke:#212121;stroke-width:1.56px;stroke-linejoin:round;"/><path d="M1188.28,72.656l-10.172,0" style="fill:none;fill-rule:nonzero;stroke:#212121;stroke-width:1.56px;stroke-linejoin:round;"/></svg>