<?xml version="1.0" encoding="UTF-8" standalone="no"?><!DOCTYPE svg PUBLIC "-//W3C//DTD SVG 1.1//EN" "http://www.w3.org/Graphics/SVG/1.1/DTD/svg11.dtd"><svg width="100%" height="100%" viewBox="0 0 2792 1388" version="1.1" xmlns="http://www.w3.org/2000/svg" xmlns:xlink="http://www.w3.org/1999/xlink" xml:space="preserve" xmlns:serif="http://www.serif.com/" style="fill-rule:evenodd;clip-rule:evenodd;stroke-linejoin:round;stroke-miterlimit:10;"><g><g><path d="M909.9,123.583l0,-54.199l18.42,0c5.445,0 9.589,1.026 12.433,3.076c2.845,2.051 4.267,5.042 4.267,8.973c-0,6.518 -4.334,11.132 -13.001,13.842c10.132,2.466 15.198,7.434 15.198,14.905c-0,4.321 -1.483,7.636 -4.449,9.943c-2.967,2.307 -7.221,3.46 -12.763,3.46l-20.105,0Zm10.62,-31.64l2.673,-0c3.174,-0 5.695,-0.782 7.562,-2.344c1.868,-1.563 2.802,-3.687 2.802,-6.372c0,-2.49 -0.751,-4.181 -2.252,-5.072c-1.501,-0.891 -4.34,-1.337 -8.515,-1.337l-2.27,0l0,15.125Zm0,23.95l2.417,-0c4.736,-0 8.002,-0.507 9.796,-1.52c1.795,-1.013 2.692,-2.862 2.692,-5.548c-0,-2.759 -1.203,-5.054 -3.608,-6.885c-2.404,-1.831 -5.438,-2.746 -9.1,-2.746l-2.197,-0l-0,16.699Zm56.323,3.369c-3.613,3.491 -7.483,5.237 -11.609,5.237c-3.515,-0 -6.372,-1.074 -8.569,-3.223c-2.197,-2.148 -3.296,-4.931 -3.296,-8.349c0,-4.444 1.776,-7.868 5.328,-10.272c3.553,-2.405 8.637,-3.608 15.253,-3.608l2.893,0l0,-3.662c0,-4.175 -2.38,-6.262 -7.141,-6.262c-4.224,-0 -8.496,1.196 -12.817,3.589l-0,-7.471c4.907,-1.855 9.765,-2.783 14.575,-2.783c10.522,-0 15.784,4.187 15.784,12.561l-0,17.798c-0,3.149 1.013,4.724 3.039,4.724c0.366,-0 0.842,-0.049 1.428,-0.147l0.257,6.079c-2.295,0.684 -4.321,1.026 -6.079,1.026c-4.444,-0 -7.3,-1.746 -8.57,-5.237l-0.476,0Zm0,-5.823l0,-8.166l-2.563,-0c-7.007,-0 -10.51,2.197 -10.51,6.592c-0,1.489 0.506,2.74 1.519,3.753c1.013,1.013 2.265,1.52 3.754,1.52c2.539,-0 5.139,-1.233 7.8,-3.699Zm24.537,24.61l9.118,-14.466l-14.905,-40.21l11.646,0l9.961,26.88l11.828,-26.88l8.24,0l-24.829,54.676l-11.059,-0Zm76.318,-15.821c-5.151,1.514 -10.034,2.271 -14.649,2.271c-6.714,-0 -12.012,-1.905 -15.893,-5.713c-3.882,-3.809 -5.823,-9.009 -5.823,-15.601c-0,-6.225 1.776,-11.236 5.328,-15.032c3.552,-3.797 8.246,-5.695 14.081,-5.695c5.884,-0 10.181,1.855 12.891,5.566c2.71,3.711 4.065,9.583 4.065,17.615l-24.939,0c0.732,7.666 4.944,11.499 12.634,11.499c3.638,-0 7.739,-0.842 12.305,-2.527l-0,7.617Zm-25.086,-22.705l14.429,0c-0,-6.86 -2.21,-10.29 -6.629,-10.29c-4.492,-0 -7.092,3.43 -7.8,10.29Zm35.23,22.779l-0,-7.947c5.371,2.246 9.961,3.369 13.769,3.369c4.444,0 6.665,-1.514 6.665,-4.541c0,-1.953 -1.831,-3.662 -5.493,-5.127l-3.662,-1.465c-3.979,-1.611 -6.824,-3.345 -8.533,-5.2c-1.709,-1.855 -2.563,-4.15 -2.563,-6.885c-0,-3.808 1.453,-6.769 4.358,-8.881c2.905,-2.111 6.97,-3.167 12.194,-3.167c3.272,-0 7.166,0.476 11.683,1.428l-0,7.617c-4.346,-1.513 -7.947,-2.27 -10.803,-2.27c-4.493,-0 -6.739,1.391 -6.739,4.175c0,1.831 1.66,3.381 4.981,4.65l3.149,1.209c4.712,1.782 7.989,3.589 9.833,5.42c1.843,1.831 2.765,4.187 2.765,7.068c-0,3.784 -1.569,6.854 -4.706,9.21c-3.137,2.356 -7.22,3.534 -12.25,3.534c-4.834,-0 -9.717,-0.733 -14.648,-2.197Zm43.469,1.281l-0,-40.21l10.84,0l-0,40.21l-10.84,0Zm-0,-46.985l-0,-9.045l10.84,-0l-0,9.045l-10.84,0Zm44.092,42.664c-3.613,3.491 -7.483,5.237 -11.609,5.237c-3.516,-0 -6.372,-1.074 -8.569,-3.223c-2.198,-2.148 -3.296,-4.931 -3.296,-8.349c-0,-4.444 1.776,-7.868 5.328,-10.272c3.552,-2.405 8.636,-3.608 15.253,-3.608l2.893,0l-0,-3.662c-0,-4.175 -2.381,-6.262 -7.141,-6.262c-4.224,-0 -8.496,1.196 -12.818,3.589l0,-7.471c4.907,-1.855 9.766,-2.783 14.576,-2.783c10.522,-0 15.783,4.187 15.783,12.561l0,17.798c0,3.149 1.014,4.724 3.04,4.724c0.366,-0 0.842,-0.049 1.428,-0.147l0.256,6.079c-2.295,0.684 -4.321,1.026 -6.079,1.026c-4.443,-0 -7.3,-1.746 -8.569,-5.237l-0.476,0Zm-0,-5.823l-0,-8.166l-2.564,-0c-7.007,-0 -10.51,2.197 -10.51,6.592c0,1.489 0.507,2.74 1.52,3.753c1.013,1.013 2.264,1.52 3.753,1.52c2.54,-0 5.14,-1.233 7.801,-3.699Zm24.389,10.144l0,-40.21l10.84,0l0,7.581c3.54,-5.664 8.106,-8.496 13.697,-8.496c3.589,-0 6.421,1.135 8.496,3.406c2.075,2.27 3.112,5.371 3.112,9.301l0,28.418l-10.84,0l0,-25.744c0,-4.566 -1.513,-6.849 -4.54,-6.849c-3.443,0 -6.751,2.43 -9.925,7.288l0,25.305l-10.84,0Zm73.975,0l0,-40.21l10.4,0l0,7.581c3.174,-5.664 7.691,-8.496 13.55,-8.496c3.028,-0 5.518,0.745 7.471,2.234c1.953,1.489 3.149,3.576 3.589,6.262c3.76,-5.664 8.301,-8.496 13.623,-8.496c7.349,-0 11.023,4.053 11.023,12.158l-0,28.967l-10.401,0l0,-25.415c0,-4.76 -1.586,-7.141 -4.76,-7.141c-3.247,0 -6.409,2.344 -9.485,7.031l-0,25.525l-10.4,0l-0,-25.415c-0,-4.785 -1.6,-7.178 -4.798,-7.178c-3.198,0 -6.335,2.356 -9.412,7.068l0,25.525l-10.4,0Zm89.612,0.916c-6.275,-0 -11.261,-1.898 -14.96,-5.695c-3.698,-3.796 -5.548,-8.905 -5.548,-15.326c0,-6.494 1.862,-11.621 5.585,-15.38c3.723,-3.76 8.783,-5.64 15.179,-5.64c6.421,-0 11.493,1.88 15.216,5.64c3.723,3.759 5.585,8.862 5.585,15.307c-0,6.592 -1.868,11.756 -5.603,15.491c-3.735,3.735 -8.887,5.603 -15.454,5.603Zm0.183,-6.775c6.226,0 9.338,-4.773 9.338,-14.319c0,-4.37 -0.824,-7.825 -2.472,-10.364c-1.647,-2.539 -3.912,-3.808 -6.793,-3.808c-2.856,-0 -5.108,1.269 -6.756,3.808c-1.648,2.539 -2.472,6.018 -2.472,10.437c-0,4.37 0.818,7.837 2.453,10.401c1.636,2.563 3.87,3.845 6.702,3.845Zm56.14,5.859l0,-7.58c-2.783,5.664 -7.165,8.496 -13.147,8.496c-4.834,-0 -8.63,-1.77 -11.389,-5.31c-2.759,-3.54 -4.138,-8.411 -4.138,-14.612c-0,-6.738 1.556,-12.109 4.669,-16.113c3.113,-4.004 7.294,-6.006 12.543,-6.006c4.199,-0 8.02,1.66 11.462,4.98l0,-21.679l10.877,-0l-0,57.824l-10.877,0Zm0,-29.699c-2.612,-2.93 -5.408,-4.395 -8.386,-4.395c-2.661,0 -4.785,1.282 -6.372,3.845c-1.587,2.564 -2.381,6.006 -2.381,10.328c0,8.227 2.637,12.341 7.911,12.341c3.222,-0 6.298,-2.063 9.228,-6.189l0,-15.93Zm57.129,28.344c-5.151,1.514 -10.034,2.271 -14.649,2.271c-6.713,-0 -12.011,-1.905 -15.893,-5.713c-3.882,-3.809 -5.823,-9.009 -5.823,-15.601c0,-6.225 1.776,-11.236 5.329,-15.032c3.552,-3.797 8.245,-5.695 14.08,-5.695c5.884,-0 10.181,1.855 12.891,5.566c2.71,3.711 4.065,9.583 4.065,17.615l-24.939,0c0.733,7.666 4.944,11.499 12.634,11.499c3.638,-0 7.74,-0.842 12.305,-2.527l0,7.617Zm-25.086,-22.705l14.429,0c0,-6.86 -2.209,-10.29 -6.628,-10.29c-4.492,-0 -7.093,3.43 -7.801,10.29Zm36.292,24.06l0,-57.824l10.84,-0l0,57.824l-10.84,0Zm78.772,-0.878c-4.492,1.196 -8.655,1.794 -12.488,1.794c-6.421,-0 -11.493,-1.886 -15.216,-5.658c-3.723,-3.772 -5.585,-8.905 -5.585,-15.399c0,-6.568 1.917,-11.707 5.75,-15.418c3.833,-3.711 9.131,-5.566 15.894,-5.566c3.271,-0 7.043,0.525 11.316,1.575l-0,7.837c-4.444,-1.441 -7.996,-2.161 -10.657,-2.161c-3.247,-0 -5.86,1.245 -7.837,3.735c-1.978,2.49 -2.966,5.799 -2.966,9.924c-0,4.224 1.068,7.605 3.204,10.145c2.136,2.539 4.987,3.808 8.551,3.808c3.247,0 6.592,-0.708 10.034,-2.124l0,7.508Zm27.136,1.794c-6.274,-0 -11.261,-1.898 -14.96,-5.695c-3.698,-3.796 -5.548,-8.905 -5.548,-15.326c0,-6.494 1.862,-11.621 5.585,-15.38c3.723,-3.76 8.783,-5.64 15.18,-5.64c6.42,-0 11.493,1.88 15.216,5.64c3.723,3.759 5.584,8.862 5.584,15.307c0,6.592 -1.867,11.756 -5.602,15.491c-3.736,3.735 -8.887,5.603 -15.455,5.603Zm0.183,-6.775c6.226,0 9.339,-4.773 9.339,-14.319c-0,-4.37 -0.824,-7.825 -2.472,-10.364c-1.648,-2.539 -3.913,-3.808 -6.793,-3.808c-2.857,-0 -5.109,1.269 -6.757,3.808c-1.648,2.539 -2.472,6.018 -2.472,10.437c0,4.37 0.818,7.837 2.454,10.401c1.635,2.563 3.869,3.845 6.701,3.845Zm30.835,5.859l0,-40.21l10.401,0l-0,7.581c3.174,-5.664 7.69,-8.496 13.55,-8.496c3.027,-0 5.517,0.745 7.47,2.234c1.953,1.489 3.15,3.576 3.589,6.262c3.76,-5.664 8.301,-8.496 13.623,-8.496c7.349,-0 11.023,4.053 11.023,12.158l0,28.967l-10.4,0l-0,-25.415c-0,-4.76 -1.587,-7.141 -4.761,-7.141c-3.247,0 -6.409,2.344 -9.485,7.031l0,25.525l-10.4,0l-0,-25.415c-0,-4.785 -1.599,-7.178 -4.798,-7.178c-3.198,0 -6.335,2.356 -9.411,7.068l-0,25.525l-10.401,0Zm72.73,14.466l-0,-54.676l10.84,0l-0,7.581c2.783,-5.664 7.165,-8.496 13.147,-8.496c4.834,-0 8.636,1.77 11.407,5.31c2.771,3.54 4.157,8.41 4.157,14.612c-0,6.738 -1.563,12.109 -4.688,16.113c-3.125,4.004 -7.312,6.006 -12.561,6.006c-4.224,-0 -8.044,-1.66 -11.462,-4.981l-0,18.531l-10.84,-0Zm10.84,-24.976c2.637,2.93 5.444,4.395 8.422,4.395c2.662,-0 4.786,-1.288 6.372,-3.864c1.587,-2.576 2.381,-6.012 2.381,-10.309c-0,-8.227 -2.649,-12.341 -7.947,-12.341c-3.198,-0 -6.274,2.063 -9.228,6.189l-0,15.93Zm58.557,6.189c-3.613,3.491 -7.483,5.237 -11.609,5.237c-3.516,-0 -6.372,-1.074 -8.569,-3.223c-2.198,-2.148 -3.296,-4.931 -3.296,-8.349c-0,-4.444 1.776,-7.868 5.328,-10.272c3.552,-2.405 8.637,-3.608 15.253,-3.608l2.893,0l-0,-3.662c-0,-4.175 -2.38,-6.262 -7.141,-6.262c-4.224,-0 -8.496,1.196 -12.818,3.589l0,-7.471c4.907,-1.855 9.766,-2.783 14.576,-2.783c10.522,-0 15.783,4.187 15.783,12.561l0,17.798c0,3.149 1.013,4.724 3.04,4.724c0.366,-0 0.842,-0.049 1.428,-0.147l0.256,6.079c-2.295,0.684 -4.321,1.026 -6.079,1.026c-4.443,-0 -7.299,-1.746 -8.569,-5.237l-0.476,0Zm-0,-5.823l-0,-8.166l-2.564,-0c-7.006,-0 -10.51,2.197 -10.51,6.592c0,1.489 0.507,2.74 1.52,3.753c1.013,1.013 2.264,1.52 3.754,1.52c2.539,-0 5.139,-1.233 7.8,-3.699Zm24.39,10.144l-0,-40.21l10.839,0l0,7.581c2.808,-5.664 7.08,-8.496 12.818,-8.496c0.683,-0 1.355,0.073 2.014,0.22l-0,9.667c-1.538,-0.561 -2.966,-0.842 -4.285,-0.842c-4.321,0 -7.837,2.185 -10.547,6.555l0,25.525l-10.839,0Zm34.094,0l-0,-40.21l10.84,0l-0,40.21l-10.84,0Zm-0,-46.985l-0,-9.045l10.84,-0l-0,9.045l-10.84,0Zm23.327,45.704l0,-7.947c5.371,2.246 9.961,3.369 13.77,3.369c4.443,0 6.665,-1.514 6.665,-4.541c-0,-1.953 -1.831,-3.662 -5.493,-5.127l-3.662,-1.465c-3.98,-1.611 -6.824,-3.345 -8.533,-5.2c-1.709,-1.855 -2.563,-4.15 -2.563,-6.885c-0,-3.808 1.452,-6.769 4.357,-8.881c2.906,-2.111 6.971,-3.167 12.195,-3.167c3.272,-0 7.166,0.476 11.682,1.428l0,7.617c-4.345,-1.513 -7.946,-2.27 -10.803,-2.27c-4.492,-0 -6.738,1.391 -6.738,4.175c-0,1.831 1.66,3.381 4.98,4.65l3.15,1.209c4.712,1.782 7.989,3.589 9.832,5.42c1.844,1.831 2.765,4.187 2.765,7.068c0,3.784 -1.568,6.854 -4.705,9.21c-3.138,2.356 -7.221,3.534 -12.25,3.534c-4.834,-0 -9.717,-0.733 -14.649,-2.197Zm60.352,2.197c-6.275,-0 -11.261,-1.898 -14.96,-5.695c-3.699,-3.796 -5.548,-8.905 -5.548,-15.326c-0,-6.494 1.862,-11.621 5.585,-15.38c3.723,-3.76 8.783,-5.64 15.179,-5.64c6.421,-0 11.493,1.88 15.216,5.64c3.723,3.759 5.585,8.862 5.585,15.307c-0,6.592 -1.868,11.756 -5.603,15.491c-3.735,3.735 -8.887,5.603 -15.454,5.603Zm0.183,-6.775c6.226,0 9.339,-4.773 9.339,-14.319c-0,-4.37 -0.824,-7.825 -2.473,-10.364c-1.648,-2.539 -3.912,-3.808 -6.793,-3.808c-2.856,-0 -5.108,1.269 -6.757,3.808c-1.647,2.539 -2.471,6.018 -2.471,10.437c-0,4.37 0.818,7.837 2.453,10.401c1.636,2.563 3.87,3.845 6.702,3.845Zm30.835,5.859l-0,-40.21l10.84,0l-0,7.581c3.54,-5.664 8.105,-8.496 13.696,-8.496c3.589,-0 6.421,1.135 8.496,3.406c2.075,2.27 3.113,5.371 3.113,9.301l-0,28.418l-10.84,0l0,-25.744c0,-4.566 -1.514,-6.849 -4.541,-6.849c-3.442,0 -6.75,2.43 -9.924,7.288l-0,25.305l-10.84,0Z" style="fill-rule:nonzero;"/></g><g><path d="M362.5,1235.42l941.667,-0" style="fill:none;fill-rule:nonzero;stroke:#262626;stroke-width:2.08px;"/></g><g><rect x="558.171" y="1068.7" width="61.147" height="166.715" style="fill:#0072bd;fill-opacity:0.6;fill-rule:nonzero;"/></g><g><rect x="558.171" y="1068.7" width="61.147" height="166.715" style="fill:none;stroke:#000;stroke-width:4.17px;stroke-linejoin:miter;"/><path d="M588.745,1068.7" style="fill:none;fill-rule:nonzero;stroke:#000;stroke-width:8.33px;"/></g><g><rect x="1047.35" y="431.894" width="61.148" height="803.523" style="fill:#f33;fill-opacity:0.6;fill-rule:nonzero;"/></g><g><rect x="1047.35" y="431.894" width="61.148" height="803.523" style="fill:none;stroke:#000;stroke-width:4.17px;stroke-linejoin:miter;"/><path d="M1077.92,431.894" style="fill:none;fill-rule:nonzero;stroke:#000;stroke-width:8.33px;"/></g><g><path d="M362.5,1235.42l941.667,-0" style="fill:none;fill-rule:nonzero;stroke:#262626;stroke-width:2.08px;stroke-linecap:square;"/></g><g><path d="M400.964,1297.63l-7.178,-18.173l-7.206,18.173l14.384,-0Zm6.323,16.121l-4.586,-11.678l-17.858,0l-4.643,11.678l-5.555,-0l16.72,-42.155l5.925,-0l16.463,42.155l-6.466,-0Zm20.821,1.054c-2.829,-0 -6.446,-0.617 -10.852,-1.852l0,-5.924c4.747,2.203 8.65,3.304 11.706,3.304c2.355,0 4.249,-0.617 5.683,-1.851c1.434,-1.235 2.15,-2.858 2.15,-4.871c0,-1.652 -0.47,-3.057 -1.41,-4.215c-0.939,-1.159 -2.672,-2.45 -5.198,-3.874l-2.905,-1.681c-3.589,-2.05 -6.119,-3.983 -7.591,-5.796c-1.471,-1.813 -2.207,-3.926 -2.207,-6.337c0,-3.248 1.177,-5.92 3.532,-8.018c2.355,-2.099 5.355,-3.148 9.001,-3.148c3.247,0 6.674,0.541 10.282,1.624l-0,5.468c-4.444,-1.747 -7.757,-2.62 -9.941,-2.62c-2.069,-0 -3.778,0.551 -5.127,1.652c-1.348,1.101 -2.022,2.488 -2.022,4.159c0,1.405 0.494,2.648 1.481,3.731c0.988,1.082 2.792,2.373 5.412,3.874l3.019,1.708c3.646,2.07 6.191,4.026 7.634,5.868c1.443,1.842 2.165,4.054 2.165,6.637c-0,3.664 -1.353,6.608 -4.06,8.829c-2.705,2.222 -6.289,3.333 -10.752,3.333Zm32.613,-0.342c-2.848,0 -5.07,-0.816 -6.665,-2.45c-1.595,-1.633 -2.392,-3.902 -2.392,-6.807l-0,-18.172l-3.874,-0l0,-4.216l3.874,0l-0,-5.611l5.611,-0.541l-0,6.152l8.089,0l0,4.216l-8.089,-0l-0,17.147c-0,4.044 1.747,6.067 5.241,6.067c0.74,-0 1.642,-0.124 2.706,-0.371l-0,3.874c-1.728,0.475 -3.229,0.712 -4.501,0.712Zm28.369,-13.359c0,-2.753 0.732,-5.003 2.194,-6.75c1.462,-1.747 3.351,-2.621 5.668,-2.621c1.519,0 3.56,0.675 6.124,2.023l3.047,1.595l3.646,1.965c0.855,0.418 1.719,0.627 2.592,0.627c2.298,0 3.446,-1.756 3.446,-5.269l4.216,-0c-0.399,6.323 -2.953,9.485 -7.662,9.485c-1.633,-0 -3.93,-0.76 -6.893,-2.279l-3.19,-1.652l-3.389,-1.766c-0.684,-0.342 -1.358,-0.513 -2.023,-0.513c-2.373,-0 -3.56,1.718 -3.56,5.155l-4.216,0Zm57.792,12.647l0,-42.155l10.938,0c4.216,0 7.448,0.798 9.699,2.393c2.25,1.595 3.375,3.892 3.375,6.892c-0,5.108 -2.886,8.745 -8.659,10.91c6.893,2.107 10.339,5.915 10.339,11.421c0,3.418 -1.139,6.029 -3.418,7.833c-2.278,1.804 -5.563,2.706 -9.855,2.706l-12.418,0Zm5.924,-4.472l1.225,0c4.386,0 7.225,-0.275 8.516,-0.826c2.469,-1.044 3.703,-2.981 3.703,-5.81c0,-2.507 -1.12,-4.591 -3.361,-6.252c-2.241,-1.662 -5.041,-2.493 -8.402,-2.493l-1.681,0l0,15.381Zm0,-19.169l1.908,0c3.19,0 5.664,-0.683 7.42,-2.051c1.757,-1.367 2.635,-3.294 2.635,-5.782c0,-4.139 -3.209,-6.209 -9.627,-6.209l-2.336,0l0,14.042Zm43.75,19.71c-3.361,3.095 -6.599,4.643 -9.713,4.643c-2.563,0 -4.69,-0.802 -6.38,-2.407c-1.69,-1.604 -2.535,-3.631 -2.535,-6.081c0,-3.38 1.42,-5.977 4.259,-7.79c2.838,-1.813 6.906,-2.72 12.205,-2.72l1.338,-0l0,-3.732c0,-3.588 -1.842,-5.383 -5.526,-5.383c-2.962,0 -6.161,0.912 -9.598,2.735l-0,-4.643c3.778,-1.538 7.32,-2.307 10.624,-2.307c3.456,-0 6.005,0.778 7.647,2.336c1.643,1.557 2.464,3.977 2.464,7.262l0,14.014c0,3.209 0.988,4.814 2.963,4.814c0.246,0 0.607,-0.038 1.082,-0.114l0.398,3.104c-1.272,0.608 -2.677,0.912 -4.215,0.912c-2.62,0 -4.291,-1.548 -5.013,-4.643Zm-0.826,-3.047l0,-8.004l-1.88,-0.057c-3.076,-0 -5.563,0.584 -7.462,1.751c-1.899,1.168 -2.849,2.702 -2.849,4.6c0,1.349 0.475,2.488 1.425,3.419c0.949,0.93 2.107,1.395 3.475,1.395c2.335,0 4.766,-1.035 7.291,-3.104Zm17.175,16.121l0,-2.108c1.823,-0.512 2.735,-2.668 2.735,-6.465l-0,-0.57l-2.735,-0l0,-7.035l7.036,-0l-0,6.095c-0,6.247 -2.345,9.608 -7.036,10.083Zm36.658,-9.143l0,-42.155l10.938,-0c4.215,-0 7.448,0.797 9.698,2.392c2.25,1.595 3.375,3.893 3.375,6.893c0,5.108 -2.886,8.745 -8.659,10.91c6.893,2.107 10.34,5.915 10.34,11.421c-0,3.418 -1.139,6.029 -3.418,7.833c-2.279,1.804 -5.564,2.706 -9.856,2.706l-12.418,-0Zm5.925,-4.472l1.224,0c4.387,0 7.225,-0.275 8.517,-0.826c2.468,-1.044 3.702,-2.981 3.702,-5.81c0,-2.507 -1.12,-4.591 -3.36,-6.252c-2.241,-1.662 -5.042,-2.493 -8.403,-2.493l-1.68,0l-0,15.381Zm-0,-19.169l1.908,0c3.19,0 5.663,-0.683 7.42,-2.051c1.756,-1.367 2.634,-3.294 2.634,-5.782c0,-4.139 -3.209,-6.209 -9.627,-6.209l-2.335,0l-0,14.042Zm39.904,24.353c-4.424,0 -7.956,-1.467 -10.596,-4.401c-2.639,-2.933 -3.959,-6.859 -3.959,-11.777c0,-4.975 1.325,-8.911 3.974,-11.807c2.649,-2.895 6.243,-4.343 10.781,-4.343c4.538,-0 8.132,1.448 10.781,4.343c2.649,2.896 3.973,6.813 3.973,11.75c0,5.051 -1.329,9.019 -3.988,11.905c-2.658,2.887 -6.313,4.33 -10.966,4.33Zm0.086,-4.215c5.943,-0 8.915,-4.007 8.915,-12.02c0,-7.919 -2.934,-11.878 -8.801,-11.878c-5.849,0 -8.773,3.978 -8.773,11.935c0,7.975 2.886,11.963 8.659,11.963Zm23.726,12.646l0,-2.108c1.823,-0.512 2.735,-2.668 2.735,-6.465l-0,-0.57l-2.735,-0l0,-7.035l7.035,-0l0,6.095c0,6.247 -2.345,9.608 -7.035,10.083Zm36.658,-9.143l-0,-42.155l8.289,-0l11.678,32.613l12.02,-32.613l7.405,-0l0,42.155l-5.582,-0l-0,-34.294l-11.622,31.474l-5.782,-0l-11.279,-31.559l0,34.379l-5.127,-0Z" style="fill:#262626;fill-rule:nonzero;"/></g><g><path d="M883.363,1313.75l-0,-42.155l10.937,0c4.215,0 7.448,0.798 9.698,2.393c2.251,1.594 3.376,3.892 3.376,6.892c-0,5.108 -2.887,8.745 -8.659,10.91c6.893,2.107 10.339,5.915 10.339,11.421c0,3.418 -1.139,6.029 -3.418,7.833c-2.278,1.804 -5.564,2.706 -9.855,2.706l-12.418,-0Zm5.924,-4.472l1.225,0c4.386,0 7.225,-0.275 8.516,-0.826c2.469,-1.044 3.703,-2.981 3.703,-5.81c-0,-2.507 -1.12,-4.591 -3.361,-6.252c-2.241,-1.662 -5.042,-2.493 -8.403,-2.493l-1.68,0l-0,15.381Zm-0,-19.169l1.908,0c3.19,0 5.664,-0.683 7.42,-2.051c1.756,-1.367 2.635,-3.294 2.635,-5.782c-0,-4.139 -3.209,-6.209 -9.627,-6.209l-2.336,0l-0,14.042Zm43.75,19.71c-3.361,3.095 -6.599,4.643 -9.713,4.643c-2.563,0 -4.69,-0.802 -6.38,-2.407c-1.69,-1.604 -2.535,-3.631 -2.535,-6.081c-0,-3.38 1.419,-5.977 4.258,-7.79c2.839,-1.813 6.907,-2.72 12.205,-2.72l1.339,-0l-0,-3.732c-0,-3.588 -1.842,-5.383 -5.526,-5.383c-2.962,0 -6.162,0.912 -9.599,2.735l0,-4.643c3.779,-1.538 7.321,-2.307 10.624,-2.307c3.457,-0 6.006,0.778 7.648,2.336c1.643,1.557 2.464,3.977 2.464,7.262l0,14.014c0,3.209 0.987,4.814 2.962,4.814c0.247,-0 0.608,-0.038 1.083,-0.114l0.398,3.104c-1.272,0.608 -2.677,0.912 -4.215,0.912c-2.621,0 -4.292,-1.548 -5.013,-4.643Zm-0.826,-3.047l-0,-8.004l-1.88,-0.057c-3.076,-0 -5.564,0.584 -7.463,1.751c-1.899,1.168 -2.848,2.702 -2.848,4.6c-0,1.349 0.475,2.488 1.424,3.419c0.95,0.93 2.108,1.395 3.475,1.395c2.336,0 4.766,-1.035 7.292,-3.104Zm32.926,-5.669c0,-2.753 0.731,-5.003 2.193,-6.75c1.463,-1.747 3.352,-2.621 5.669,-2.621c1.519,0 3.56,0.675 6.123,2.023l3.048,1.595l3.646,1.965c0.854,0.418 1.718,0.627 2.592,0.627c2.298,0 3.447,-1.756 3.447,-5.269l4.215,-0c-0.399,6.323 -2.953,9.485 -7.662,9.485c-1.633,-0 -3.931,-0.76 -6.893,-2.279l-3.19,-1.652l-3.39,-1.766c-0.683,-0.342 -1.357,-0.513 -2.022,-0.513c-2.373,-0 -3.56,1.718 -3.56,5.155l-4.216,0Zm79.155,-3.474l-7.178,-18.173l-7.206,18.173l14.384,-0Zm6.323,16.121l-4.586,-11.678l-17.859,0l-4.643,11.678l-5.554,0l16.72,-42.155l5.924,0l16.463,42.155l-6.465,0Zm20.821,1.054c-2.829,-0 -6.447,-0.617 -10.852,-1.851l0,-5.925c4.747,2.203 8.649,3.304 11.706,3.304c2.355,0 4.249,-0.617 5.683,-1.851c1.434,-1.235 2.15,-2.858 2.15,-4.871c0,-1.652 -0.47,-3.057 -1.41,-4.215c-0.939,-1.159 -2.672,-2.45 -5.198,-3.874l-2.905,-1.681c-3.589,-2.05 -6.119,-3.982 -7.591,-5.796c-1.471,-1.813 -2.207,-3.926 -2.207,-6.337c0,-3.248 1.177,-5.92 3.532,-8.018c2.354,-2.099 5.355,-3.148 9.001,-3.148c3.247,0 6.674,0.541 10.282,1.624l-0,5.468c-4.444,-1.747 -7.757,-2.62 -9.941,-2.62c-2.069,-0 -3.778,0.551 -5.127,1.652c-1.348,1.101 -2.022,2.488 -2.022,4.159c0,1.405 0.494,2.648 1.481,3.731c0.987,1.082 2.791,2.373 5.412,3.874l3.019,1.708c3.646,2.07 6.19,4.026 7.633,5.868c1.444,1.842 2.165,4.054 2.165,6.637c0,3.664 -1.353,6.608 -4.059,8.829c-2.706,2.222 -6.29,3.333 -10.752,3.333Zm32.613,-0.342c-2.848,0 -5.07,-0.816 -6.665,-2.45c-1.595,-1.633 -2.392,-3.902 -2.392,-6.807l-0,-18.172l-3.874,-0l-0,-4.216l3.874,0l-0,-5.611l5.611,-0.541l-0,6.152l8.089,0l0,4.216l-8.089,-0l-0,17.147c-0,4.044 1.747,6.067 5.241,6.067c0.74,-0 1.642,-0.124 2.706,-0.371l-0,3.874c-1.728,0.475 -3.229,0.712 -4.501,0.712Zm12.618,8.431l0,-2.108c1.823,-0.512 2.735,-2.668 2.735,-6.465l-0,-0.57l-2.735,-0l0,-7.035l7.035,-0l0,6.095c0,6.247 -2.345,9.608 -7.035,10.083Zm58.02,-25.264l-7.177,-18.173l-7.207,18.173l14.384,-0Zm6.323,16.121l-4.585,-11.678l-17.859,0l-4.643,11.678l-5.554,-0l16.719,-42.155l5.925,-0l16.463,42.155l-6.466,-0Zm12.818,9.143l-0,-2.108c1.823,-0.512 2.734,-2.668 2.734,-6.465l0,-0.57l-2.734,-0l-0,-7.035l7.035,-0l0,6.095c0,6.247 -2.345,9.608 -7.035,10.083Zm36.657,-9.143l0,-42.155l8.289,-0l11.678,32.613l12.02,-32.613l7.405,-0l0,42.155l-5.582,-0l0,-34.294l-11.621,31.474l-5.782,-0l-11.279,-31.559l-0,34.379l-5.128,-0Z" style="fill:#262626;fill-rule:nonzero;"/></g><g><path d="M362.5,1235.42l0,-1018.75" style="fill:none;fill-rule:nonzero;stroke:#262626;stroke-width:2.08px;stroke-linecap:square;"/></g><g><path d="M329.728,1250.75c-3.106,-0 -5.618,-1.462 -7.538,-4.385c-1.919,-2.922 -2.878,-6.737 -2.878,-11.444c-0,-4.747 0.966,-8.565 2.899,-11.454c1.933,-2.889 4.479,-4.333 7.639,-4.333c3.161,-0 5.707,1.444 7.64,4.333c1.933,2.889 2.899,6.687 2.899,11.393c0,4.829 -0.966,8.684 -2.899,11.567c-1.933,2.882 -4.52,4.323 -7.762,4.323Zm0.041,-3.011c4.245,-0 6.368,-4.314 6.368,-12.94c0,-8.436 -2.095,-12.655 -6.287,-12.655c-4.177,0 -6.266,4.259 -6.266,12.777c0,8.545 2.062,12.818 6.185,12.818Z" style="fill:#262626;fill-rule:nonzero;"/></g><g><path d="M292.228,1153.73c-3.106,0 -5.618,-1.461 -7.538,-4.384c-1.919,-2.923 -2.878,-6.738 -2.878,-11.445c-0,-4.747 0.966,-8.565 2.899,-11.454c1.933,-2.889 4.479,-4.333 7.639,-4.333c3.161,-0 5.707,1.444 7.64,4.333c1.933,2.889 2.899,6.687 2.899,11.394c0,4.828 -0.966,8.684 -2.899,11.566c-1.933,2.882 -4.52,4.323 -7.762,4.323Zm0.041,-3.011c4.245,-0 6.368,-4.313 6.368,-12.94c0,-8.436 -2.095,-12.654 -6.287,-12.654c-4.177,-0 -6.266,4.259 -6.266,12.776c0,8.545 2.062,12.818 6.185,12.818Zm17.314,2.258l-0,-5.025l5.025,-0l-0,5.025l-5.025,0Zm15.38,0l0,-3.011l6.022,-0l0,-23.763l-6.022,1.505l0,-3.092l10.051,-2.502l-0,27.852l6.022,-0l-0,3.011l-16.073,0Z" style="fill:#262626;fill-rule:nonzero;"/></g><g><path d="M292.228,1056.7c-3.106,0 -5.618,-1.461 -7.538,-4.384c-1.919,-2.923 -2.878,-6.738 -2.878,-11.444c-0,-4.747 0.966,-8.565 2.899,-11.455c1.933,-2.888 4.479,-4.333 7.639,-4.333c3.161,0 5.707,1.445 7.64,4.333c1.933,2.89 2.899,6.687 2.899,11.394c0,4.828 -0.966,8.684 -2.899,11.566c-1.933,2.882 -4.52,4.323 -7.762,4.323Zm0.041,-3.011c4.245,0 6.368,-4.313 6.368,-12.939c0,-8.437 -2.095,-12.655 -6.287,-12.655c-4.177,-0 -6.266,4.259 -6.266,12.777c0,8.545 2.062,12.817 6.185,12.817Zm17.314,2.258l-0,-5.025l5.025,0l-0,5.025l-5.025,0Zm12.573,0l-0,-3.519c1.166,-2.726 3.526,-5.697 7.08,-8.911l2.299,-2.055c2.957,-2.672 4.435,-5.324 4.435,-7.955c0,-1.682 -0.505,-3.004 -1.516,-3.967c-1.01,-0.963 -2.397,-1.445 -4.16,-1.445c-2.089,-0 -4.551,0.807 -7.386,2.421l0,-3.54c2.673,-1.261 5.324,-1.892 7.955,-1.892c2.822,0 5.087,0.76 6.796,2.278c1.709,1.52 2.563,3.534 2.563,6.043c0,1.804 -0.43,3.405 -1.292,4.802c-0.861,1.397 -2.465,3.092 -4.811,5.086l-1.546,1.322c-3.215,2.727 -5.073,5.331 -5.575,7.813l13.082,-0l-0,3.519l-17.924,0Z" style="fill:#262626;fill-rule:nonzero;"/></g><g><path d="M292.228,959.682c-3.106,-0 -5.618,-1.462 -7.538,-4.385c-1.919,-2.923 -2.878,-6.737 -2.878,-11.444c-0,-4.747 0.966,-8.565 2.899,-11.454c1.933,-2.889 4.479,-4.334 7.639,-4.334c3.161,0 5.707,1.445 7.64,4.334c1.933,2.889 2.899,6.687 2.899,11.393c0,4.829 -0.966,8.684 -2.899,11.566c-1.933,2.883 -4.52,4.324 -7.762,4.324Zm0.041,-3.012c4.245,0 6.368,-4.313 6.368,-12.939c0,-8.437 -2.095,-12.655 -6.287,-12.655c-4.177,0 -6.266,4.259 -6.266,12.777c0,8.545 2.062,12.817 6.185,12.817Zm17.314,2.259l-0,-5.026l5.025,0l-0,5.026l-5.025,-0Zm13.346,-0.224l-0,-3.743c2.875,1.139 5.14,1.708 6.795,1.708c1.913,0 3.469,-0.559 4.669,-1.678c1.201,-1.119 1.801,-2.567 1.801,-4.344c-0,-4.231 -2.964,-6.347 -8.891,-6.347l-1.587,-0l0,-2.706l1.404,-0.02c5.561,-0 8.341,-1.96 8.341,-5.88c0,-3.079 -1.831,-4.619 -5.493,-4.619c-2.007,0 -4.218,0.563 -6.632,1.689l-0,-3.499c2.373,-0.8 4.679,-1.201 6.917,-1.201c6.158,0 9.237,2.327 9.237,6.979c-0,3.54 -2.096,6.063 -6.287,7.568c4.856,1.126 7.284,3.784 7.284,7.975c-0,2.835 -0.936,5.06 -2.808,6.673c-1.872,1.615 -4.442,2.422 -7.711,2.422c-1.858,-0 -4.205,-0.326 -7.039,-0.977Z" style="fill:#262626;fill-rule:nonzero;"/></g><g><path d="M292.228,862.658c-3.106,-0 -5.618,-1.462 -7.538,-4.385c-1.919,-2.923 -2.878,-6.738 -2.878,-11.444c-0,-4.747 0.966,-8.565 2.899,-11.454c1.933,-2.889 4.479,-4.334 7.639,-4.334c3.161,0 5.707,1.445 7.64,4.334c1.933,2.889 2.899,6.687 2.899,11.393c0,4.829 -0.966,8.684 -2.899,11.566c-1.933,2.882 -4.52,4.323 -7.762,4.323Zm0.041,-3.011c4.245,0 6.368,-4.313 6.368,-12.939c0,-8.437 -2.095,-12.655 -6.287,-12.655c-4.177,0 -6.266,4.259 -6.266,12.777c0,8.545 2.062,12.817 6.185,12.817Zm17.314,2.259l-0,-5.026l5.025,0l-0,5.026l-5.025,-0Zm24.8,-0l0,-8.525l-13.55,-0l0,-3.031l13.55,-18.555l3.764,-0l0,18.311l4.028,-0l0,3.275l-4.028,-0l0,8.525l-3.764,-0Zm-9.623,-11.8l9.887,-0l0,-13.388l-9.887,13.388Z" style="fill:#262626;fill-rule:nonzero;"/></g><g><path d="M292.228,765.634c-3.106,-0 -5.618,-1.462 -7.538,-4.385c-1.919,-2.923 -2.878,-6.737 -2.878,-11.444c-0,-4.747 0.966,-8.565 2.899,-11.454c1.933,-2.889 4.479,-4.333 7.639,-4.333c3.161,-0 5.707,1.444 7.64,4.333c1.933,2.889 2.899,6.687 2.899,11.393c0,4.829 -0.966,8.684 -2.899,11.566c-1.933,2.883 -4.52,4.324 -7.762,4.324Zm0.041,-3.011c4.245,-0 6.368,-4.314 6.368,-12.94c0,-8.436 -2.095,-12.655 -6.287,-12.655c-4.177,0 -6.266,4.259 -6.266,12.777c0,8.545 2.062,12.817 6.185,12.817Zm17.314,2.259l-0,-5.026l5.025,0l-0,5.026l-5.025,-0Zm14.18,0.122l-0,-3.581c1.994,0.8 3.893,1.201 5.697,1.201c1.98,-0 3.536,-0.584 4.669,-1.75c1.132,-1.166 1.699,-2.774 1.699,-4.822c-0,-4.516 -3.113,-6.775 -9.339,-6.775c-0.705,0 -1.444,0.048 -2.217,0.143l-0,-14.649l15.238,-0l0,3.5l-11.719,-0l0,7.934c3.866,0 6.884,0.888 9.054,2.665c2.17,1.777 3.255,4.239 3.255,7.386c0,2.929 -0.987,5.225 -2.96,6.886c-1.974,1.662 -4.71,2.493 -8.209,2.493c-1.519,-0 -3.242,-0.211 -5.168,-0.631Z" style="fill:#262626;fill-rule:nonzero;"/></g><g><path d="M292.228,668.61c-3.106,0 -5.618,-1.462 -7.538,-4.385c-1.919,-2.922 -2.878,-6.737 -2.878,-11.444c-0,-4.747 0.966,-8.565 2.899,-11.454c1.933,-2.889 4.479,-4.333 7.639,-4.333c3.161,-0 5.707,1.444 7.64,4.333c1.933,2.889 2.899,6.687 2.899,11.393c0,4.829 -0.966,8.684 -2.899,11.567c-1.933,2.882 -4.52,4.323 -7.762,4.323Zm0.041,-3.011c4.245,-0 6.368,-4.313 6.368,-12.94c0,-8.436 -2.095,-12.654 -6.287,-12.654c-4.177,-0 -6.266,4.258 -6.266,12.776c0,8.545 2.062,12.818 6.185,12.818Zm17.314,2.258l-0,-5.025l5.025,-0l-0,5.025l-5.025,0Zm16.276,-15.605c1.912,-2.482 4.319,-3.723 7.222,-3.723c2.631,0 4.784,0.872 6.459,2.615c1.676,1.743 2.513,3.977 2.513,6.703c0,3.134 -0.939,5.711 -2.818,7.731c-1.878,2.021 -4.262,3.032 -7.151,3.032c-3.323,-0 -5.92,-1.336 -7.792,-4.008c-1.872,-2.672 -2.808,-6.382 -2.808,-11.129c0,-5.222 1.075,-9.277 3.225,-12.166c2.15,-2.889 5.178,-4.334 9.084,-4.334c1.791,0 4.029,0.38 6.714,1.139l0,3.5c-2.835,-1.085 -5.154,-1.628 -6.958,-1.628c-5.127,0 -7.69,4.09 -7.69,12.269Zm12.166,6.49c0,-2.279 -0.512,-4.07 -1.536,-5.372c-1.024,-1.302 -2.445,-1.953 -4.262,-1.953c-1.696,0 -3.154,0.57 -4.375,1.709c-1.22,1.14 -1.831,2.51 -1.831,4.11c0,2.523 0.58,4.547 1.74,6.073c1.16,1.526 2.696,2.289 4.608,2.289c1.723,-0 3.096,-0.621 4.12,-1.862c1.024,-1.241 1.536,-2.906 1.536,-4.995Z" style="fill:#262626;fill-rule:nonzero;"/></g><g><path d="M292.228,571.586c-3.106,0 -5.618,-1.461 -7.538,-4.384c-1.919,-2.923 -2.878,-6.738 -2.878,-11.444c-0,-4.747 0.966,-8.566 2.899,-11.455c1.933,-2.889 4.479,-4.333 7.639,-4.333c3.161,0 5.707,1.444 7.64,4.333c1.933,2.889 2.899,6.687 2.899,11.394c0,4.828 -0.966,8.684 -2.899,11.566c-1.933,2.882 -4.52,4.323 -7.762,4.323Zm0.041,-3.011c4.245,0 6.368,-4.313 6.368,-12.94c0,-8.436 -2.095,-12.654 -6.287,-12.654c-4.177,-0 -6.266,4.259 -6.266,12.777c0,8.544 2.062,12.817 6.185,12.817Zm17.314,2.258l-0,-5.025l5.025,-0l-0,5.025l-5.025,0Zm15.38,0c0.394,-2.346 0.953,-4.374 1.679,-6.083c0.726,-1.709 2.011,-4.055 3.855,-7.039l8.22,-13.224l-15.503,-0l-0,-3.765l19.328,0l-0,3.765c-7.718,11.379 -12.038,20.161 -12.96,26.346l-4.619,0Z" style="fill:#262626;fill-rule:nonzero;"/></g><g><path d="M292.228,474.563c-3.106,-0 -5.618,-1.462 -7.538,-4.385c-1.919,-2.923 -2.878,-6.738 -2.878,-11.444c-0,-4.747 0.966,-8.565 2.899,-11.454c1.933,-2.889 4.479,-4.334 7.639,-4.334c3.161,0 5.707,1.445 7.64,4.334c1.933,2.889 2.899,6.687 2.899,11.393c0,4.829 -0.966,8.684 -2.899,11.566c-1.933,2.882 -4.52,4.324 -7.762,4.324Zm0.041,-3.012c4.245,0 6.368,-4.313 6.368,-12.939c0,-8.437 -2.095,-12.655 -6.287,-12.655c-4.177,0 -6.266,4.259 -6.266,12.777c0,8.545 2.062,12.817 6.185,12.817Zm17.314,2.259l-0,-5.026l5.025,0l-0,5.026l-5.025,-0Zm18.697,-16.398c-2.944,-2.049 -4.415,-4.314 -4.415,-6.796c-0,-2.278 0.834,-4.13 2.502,-5.554c1.668,-1.424 3.845,-2.136 6.531,-2.136c2.482,-0 4.493,0.603 6.032,1.811c1.54,1.207 2.31,2.773 2.31,4.699c-0,2.916 -1.872,5.575 -5.616,7.976c4.544,2.224 6.816,5.092 6.816,8.606c-0,2.522 -0.953,4.577 -2.859,6.164c-1.905,1.587 -4.364,2.381 -7.375,2.381c-2.957,-0 -5.347,-0.75 -7.171,-2.249c-1.825,-1.498 -2.737,-3.468 -2.737,-5.91c0,-3.608 1.994,-6.605 5.982,-8.992Zm5.106,-1.262c2.808,-1.844 4.212,-3.899 4.212,-6.165c-0,-1.207 -0.468,-2.18 -1.404,-2.919c-0.936,-0.739 -2.17,-1.109 -3.703,-1.109c-1.478,0 -2.679,0.363 -3.601,1.089c-0.922,0.725 -1.383,1.665 -1.383,2.817c-0,1.126 0.417,2.133 1.251,3.022c0.834,0.888 2.377,1.977 4.628,3.265Zm-2.929,2.889c-1.615,1.248 -2.71,2.336 -3.286,3.266c-0.577,0.928 -0.865,2.085 -0.865,3.468c0,1.723 0.556,3.116 1.669,4.181c1.112,1.065 2.577,1.597 4.394,1.597c1.75,0 3.177,-0.454 4.283,-1.363c1.105,-0.909 1.658,-2.089 1.658,-3.54c-0,-1.166 -0.343,-2.153 -1.028,-2.96c-0.685,-0.807 -2.01,-1.794 -3.977,-2.96l-2.848,-1.689Z" style="fill:#262626;fill-rule:nonzero;"/></g><g><path d="M292.228,377.539c-3.106,-0 -5.618,-1.462 -7.538,-4.385c-1.919,-2.923 -2.878,-6.737 -2.878,-11.444c-0,-4.747 0.966,-8.565 2.899,-11.454c1.933,-2.889 4.479,-4.333 7.639,-4.333c3.161,-0 5.707,1.444 7.64,4.333c1.933,2.889 2.899,6.687 2.899,11.393c0,4.829 -0.966,8.684 -2.899,11.566c-1.933,2.883 -4.52,4.324 -7.762,4.324Zm0.041,-3.011c4.245,-0 6.368,-4.314 6.368,-12.94c0,-8.436 -2.095,-12.655 -6.287,-12.655c-4.177,0 -6.266,4.259 -6.266,12.777c0,8.545 2.062,12.818 6.185,12.818Zm17.314,2.258l-0,-5.026l5.025,0l-0,5.026l-5.025,-0Zm13.855,-0.183l-0,-3.398c2.549,0.882 4.72,1.323 6.51,1.323c2.495,-0 4.445,-1.062 5.849,-3.185c1.404,-2.122 2.106,-5.075 2.106,-8.86c-2.035,2.51 -4.347,3.764 -6.938,3.764c-2.536,0 -4.686,-0.932 -6.449,-2.797c-1.763,-1.865 -2.645,-4.141 -2.645,-6.826c-0,-3.079 0.939,-5.632 2.818,-7.66c1.878,-2.028 4.242,-3.041 7.09,-3.041c3.269,-0 5.846,1.312 7.731,3.936c1.885,2.625 2.828,6.215 2.828,10.773c-0,5.181 -1.15,9.294 -3.448,12.339c-2.299,3.045 -5.409,4.568 -9.329,4.568c-1.573,-0 -3.614,-0.312 -6.123,-0.936Zm2.441,-20.773c-0,2.333 0.519,4.171 1.556,5.514c1.038,1.343 2.459,2.014 4.263,2.014c1.695,-0 3.143,-0.576 4.343,-1.729c1.201,-1.153 1.801,-2.543 1.801,-4.171c-0,-2.563 -0.58,-4.628 -1.739,-6.195c-1.16,-1.567 -2.683,-2.35 -4.568,-2.35c-1.75,-0 -3.13,0.62 -4.14,1.862c-1.011,1.241 -1.516,2.926 -1.516,5.055Z" style="fill:#262626;fill-rule:nonzero;"/></g><g><path d="M322.933,279.762l-0,-3.011l6.022,-0l0,-23.763l-6.022,1.505l-0,-3.092l10.05,-2.502l0,27.852l6.022,-0l0,3.011l-16.072,0Z" style="fill:#262626;fill-rule:nonzero;"/></g><g><path d="M250,765.104l-24.186,-15.983l-23.991,15.201l-0,-8.072l18.164,-11.589l-18.164,-12.174l-0,-6.446l23.275,15.397l24.902,-15.788l0,8.074l-19.108,12.239l19.108,12.663l0,6.478Zm0,-47.429l-48.177,0l-0,-13.118c-0,-5.816 0.982,-9.994 2.946,-12.533c1.964,-2.539 5.192,-3.808 9.684,-3.808c5.122,-0 9.136,1.736 12.044,5.208c2.908,3.472 4.362,8.29 4.362,14.453l0,3.028l19.141,-0l0,6.77Zm-24.316,-6.77l-0,-2.767c-0,-4.059 -0.933,-7.194 -2.8,-9.408c-1.866,-2.214 -4.503,-3.32 -7.91,-3.32c-2.886,-0 -4.948,0.868 -6.185,2.604c-1.237,1.736 -1.855,4.633 -1.855,8.691l-0,4.2l18.75,-0Z" style="fill:#262626;fill-rule:nonzero;"/></g><g><path d="M1583.33,1235.42l943.75,-0" style="fill:none;fill-rule:nonzero;stroke:#262626;stroke-width:2.08px;"/></g><g><rect x="1779.44" y="782.384" width="61.283" height="453.033" style="fill:#0072bd;fill-opacity:0.6;fill-rule:nonzero;"/></g><g><rect x="1779.44" y="782.384" width="61.283" height="453.033" style="fill:none;stroke:#000;stroke-width:4.17px;stroke-linejoin:miter;"/><path d="M1810.08,782.384" style="fill:none;fill-rule:nonzero;stroke:#000;stroke-width:8.33px;"/></g><g><rect x="2269.7" y="718.212" width="61.283" height="517.205" style="fill:#f33;fill-opacity:0.6;fill-rule:nonzero;"/></g><g><rect x="2269.7" y="718.212" width="61.283" height="517.205" style="fill:none;stroke:#000;stroke-width:4.17px;stroke-linejoin:miter;"/><path d="M2300.34,718.212" style="fill:none;fill-rule:nonzero;stroke:#000;stroke-width:8.33px;"/></g><g><path d="M1583.33,1235.42l943.75,-0" style="fill:none;fill-rule:nonzero;stroke:#262626;stroke-width:2.08px;stroke-linecap:square;"/></g><g><path d="M1622.3,1297.63l-7.178,-18.173l-7.206,18.173l14.384,-0Zm6.323,16.121l-4.586,-11.678l-17.859,0l-4.643,11.678l-5.554,-0l16.72,-42.155l5.924,-0l16.464,42.155l-6.466,-0Zm20.821,1.054c-2.829,-0 -6.447,-0.617 -10.852,-1.852l0,-5.924c4.747,2.203 8.649,3.304 11.706,3.304c2.355,0 4.249,-0.617 5.683,-1.851c1.433,-1.235 2.15,-2.858 2.15,-4.871c0,-1.652 -0.47,-3.057 -1.41,-4.215c-0.94,-1.159 -2.672,-2.45 -5.198,-3.874l-2.905,-1.681c-3.589,-2.05 -6.119,-3.983 -7.591,-5.796c-1.471,-1.813 -2.207,-3.926 -2.207,-6.337c-0,-3.248 1.177,-5.92 3.532,-8.018c2.354,-2.099 5.355,-3.148 9,-3.148c3.247,0 6.675,0.541 10.283,1.624l-0,5.468c-4.444,-1.747 -7.757,-2.62 -9.941,-2.62c-2.07,-0 -3.779,0.551 -5.127,1.652c-1.348,1.101 -2.022,2.488 -2.022,4.159c-0,1.405 0.494,2.648 1.481,3.731c0.987,1.082 2.791,2.373 5.412,3.874l3.019,1.708c3.646,2.07 6.19,4.026 7.633,5.868c1.444,1.842 2.165,4.054 2.165,6.637c0,3.664 -1.353,6.608 -4.059,8.829c-2.706,2.222 -6.29,3.333 -10.752,3.333Zm32.613,-0.342c-2.848,0 -5.07,-0.816 -6.665,-2.45c-1.595,-1.633 -2.392,-3.902 -2.392,-6.807l-0,-18.172l-3.874,-0l-0,-4.216l3.874,0l-0,-5.611l5.611,-0.541l-0,6.152l8.089,0l-0,4.216l-8.089,-0l-0,17.147c-0,4.044 1.747,6.067 5.241,6.067c0.74,-0 1.642,-0.124 2.705,-0.371l0,3.874c-1.728,0.475 -3.228,0.712 -4.5,0.712Zm28.369,-13.359c0,-2.753 0.731,-5.003 2.194,-6.75c1.461,-1.747 3.351,-2.621 5.667,-2.621c1.52,0 3.561,0.675 6.125,2.023l3.047,1.595l3.646,1.965c0.854,0.418 1.718,0.627 2.592,0.627c2.298,0 3.446,-1.756 3.446,-5.269l4.216,-0c-0.399,6.323 -2.953,9.485 -7.662,9.485c-1.633,-0 -3.931,-0.76 -6.893,-2.279l-3.19,-1.652l-3.389,-1.766c-0.684,-0.342 -1.358,-0.513 -2.023,-0.513c-2.374,-0 -3.56,1.718 -3.56,5.155l-4.216,0Zm57.792,12.647l0,-42.155l10.938,0c4.215,0 7.448,0.798 9.699,2.393c2.25,1.595 3.375,3.892 3.375,6.892c-0,5.108 -2.887,8.745 -8.659,10.91c6.893,2.107 10.339,5.915 10.339,11.421c-0,3.418 -1.139,6.029 -3.418,7.833c-2.279,1.804 -5.564,2.706 -9.855,2.706l-12.419,0Zm5.925,-4.472l1.224,0c4.387,0 7.226,-0.275 8.517,-0.826c2.469,-1.044 3.703,-2.981 3.703,-5.81c0,-2.507 -1.12,-4.591 -3.361,-6.252c-2.241,-1.662 -5.042,-2.493 -8.403,-2.493l-1.68,0l-0,15.381Zm-0,-19.169l1.908,0c3.19,0 5.664,-0.683 7.42,-2.051c1.757,-1.367 2.635,-3.294 2.635,-5.782c-0,-4.139 -3.209,-6.209 -9.628,-6.209l-2.335,0l-0,14.042Zm43.75,19.71c-3.361,3.095 -6.599,4.643 -9.713,4.643c-2.563,0 -4.69,-0.802 -6.38,-2.407c-1.69,-1.604 -2.535,-3.631 -2.535,-6.081c-0,-3.38 1.419,-5.977 4.258,-7.79c2.839,-1.813 6.907,-2.72 12.205,-2.72l1.339,-0l0,-3.732c0,-3.588 -1.842,-5.383 -5.526,-5.383c-2.962,0 -6.162,0.912 -9.599,2.735l0,-4.643c3.779,-1.538 7.32,-2.307 10.625,-2.307c3.455,-0 6.005,0.778 7.647,2.336c1.643,1.557 2.464,3.977 2.464,7.262l-0,14.014c-0,3.209 0.987,4.814 2.962,4.814c0.247,0 0.608,-0.038 1.082,-0.114l0.399,3.104c-1.272,0.608 -2.677,0.912 -4.215,0.912c-2.621,0 -4.291,-1.548 -5.013,-4.643Zm-0.826,-3.047l0,-8.004l-1.88,-0.057c-3.076,-0 -5.564,0.584 -7.462,1.751c-1.899,1.168 -2.849,2.702 -2.849,4.6c0,1.349 0.475,2.488 1.424,3.419c0.95,0.93 2.108,1.395 3.475,1.395c2.336,0 4.766,-1.035 7.292,-3.104Zm17.175,16.121l0,-2.108c1.823,-0.512 2.735,-2.668 2.735,-6.465l-0,-0.57l-2.735,-0l0,-7.035l7.035,-0l0,6.095c0,6.247 -2.345,9.608 -7.035,10.083Zm36.658,-9.143l-0,-42.155l10.937,-0c4.216,-0 7.449,0.797 9.699,2.392c2.25,1.595 3.375,3.893 3.375,6.893c0,5.108 -2.886,8.745 -8.659,10.91c6.893,2.107 10.34,5.915 10.34,11.421c-0,3.418 -1.14,6.029 -3.418,7.833c-2.279,1.804 -5.564,2.706 -9.856,2.706l-12.418,-0Zm5.925,-4.472l1.224,0c4.386,0 7.225,-0.275 8.516,-0.826c2.469,-1.044 3.703,-2.981 3.703,-5.81c0,-2.507 -1.12,-4.591 -3.361,-6.252c-2.24,-1.662 -5.041,-2.493 -8.402,-2.493l-1.68,0l-0,15.381Zm-0,-19.169l1.908,0c3.19,0 5.663,-0.683 7.419,-2.051c1.757,-1.367 2.635,-3.294 2.635,-5.782c0,-4.139 -3.209,-6.209 -9.627,-6.209l-2.335,0l-0,14.042Zm39.904,24.353c-4.424,0 -7.956,-1.467 -10.596,-4.401c-2.639,-2.933 -3.959,-6.859 -3.959,-11.777c0,-4.975 1.325,-8.911 3.974,-11.807c2.649,-2.895 6.242,-4.343 10.781,-4.343c4.538,-0 8.131,1.448 10.781,4.343c2.648,2.896 3.973,6.813 3.973,11.75c-0,5.051 -1.329,9.019 -3.988,11.905c-2.658,2.887 -6.314,4.33 -10.966,4.33Zm0.086,-4.215c5.943,-0 8.915,-4.007 8.915,-12.02c-0,-7.919 -2.934,-11.878 -8.801,-11.878c-5.849,0 -8.773,3.978 -8.773,11.935c-0,7.975 2.886,11.963 8.659,11.963Zm23.726,12.646l-0,-2.108c1.823,-0.512 2.734,-2.668 2.734,-6.465l0,-0.57l-2.734,-0l-0,-7.035l7.035,-0l0,6.095c0,6.247 -2.345,9.608 -7.035,10.083Zm36.658,-9.143l-0,-42.155l8.288,-0l11.678,32.613l12.02,-32.613l7.406,-0l-0,42.155l-5.583,-0l0,-34.294l-11.621,31.474l-5.782,-0l-11.279,-31.559l-0,34.379l-5.127,-0Z" style="fill:#262626;fill-rule:nonzero;"/></g><g><path d="M2105.78,1313.75l-0,-42.155l10.937,0c4.216,0 7.448,0.798 9.699,2.393c2.25,1.594 3.375,3.892 3.375,6.892c0,5.108 -2.886,8.745 -8.659,10.91c6.893,2.107 10.339,5.915 10.339,11.421c0,3.418 -1.139,6.029 -3.418,7.833c-2.278,1.804 -5.563,2.706 -9.855,2.706l-12.418,-0Zm5.924,-4.472l1.225,0c4.386,0 7.225,-0.275 8.516,-0.826c2.469,-1.044 3.703,-2.981 3.703,-5.81c0,-2.507 -1.12,-4.591 -3.361,-6.252c-2.241,-1.662 -5.041,-2.493 -8.402,-2.493l-1.681,0l-0,15.381Zm-0,-19.169l1.908,0c3.191,0 5.664,-0.683 7.42,-2.051c1.757,-1.367 2.635,-3.294 2.635,-5.782c-0,-4.139 -3.209,-6.209 -9.627,-6.209l-2.336,0l-0,14.042Zm43.75,19.71c-3.361,3.095 -6.598,4.643 -9.713,4.643c-2.563,0 -4.69,-0.802 -6.38,-2.407c-1.69,-1.604 -2.535,-3.631 -2.535,-6.081c0,-3.38 1.419,-5.977 4.258,-7.79c2.839,-1.813 6.908,-2.72 12.205,-2.72l1.339,-0l0,-3.732c0,-3.588 -1.842,-5.383 -5.526,-5.383c-2.962,0 -6.162,0.912 -9.599,2.735l0.001,-4.643c3.778,-1.538 7.32,-2.307 10.624,-2.307c3.456,-0 6.005,0.778 7.648,2.336c1.642,1.557 2.463,3.977 2.463,7.262l0,14.014c0,3.209 0.988,4.814 2.962,4.814c0.247,-0 0.608,-0.038 1.083,-0.114l0.399,3.104c-1.273,0.608 -2.678,0.912 -4.216,0.912c-2.62,0 -4.291,-1.548 -5.013,-4.643Zm-0.826,-3.047l0,-8.004l-1.88,-0.057c-3.076,-0 -5.564,0.584 -7.462,1.751c-1.899,1.168 -2.849,2.702 -2.849,4.6c0,1.349 0.475,2.488 1.424,3.419c0.95,0.93 2.108,1.395 3.475,1.395c2.336,0 4.767,-1.035 7.292,-3.104Zm32.926,-5.669c0,-2.753 0.731,-5.003 2.194,-6.75c1.462,-1.747 3.351,-2.621 5.668,-2.621c1.519,0 3.56,0.675 6.124,2.023l3.047,1.595l3.646,1.965c0.855,0.418 1.719,0.627 2.592,0.627c2.298,0 3.447,-1.756 3.447,-5.269l4.215,-0c-0.399,6.323 -2.953,9.485 -7.662,9.485c-1.633,-0 -3.931,-0.76 -6.893,-2.279l-3.19,-1.652l-3.389,-1.766c-0.684,-0.342 -1.358,-0.513 -2.022,-0.513c-2.374,-0 -3.561,1.718 -3.561,5.155l-4.216,0Zm79.155,-3.474l-7.178,-18.173l-7.206,18.173l14.384,-0Zm6.323,16.121l-4.586,-11.678l-17.858,0l-4.643,11.678l-5.554,0l16.719,-42.155l5.925,0l16.463,42.155l-6.466,0Zm20.821,1.054c-2.829,-0 -6.446,-0.617 -10.852,-1.851l0,-5.925c4.748,2.203 8.65,3.304 11.707,3.304c2.354,0 4.249,-0.617 5.682,-1.851c1.434,-1.235 2.151,-2.858 2.151,-4.871c-0,-1.652 -0.47,-3.057 -1.41,-4.215c-0.94,-1.159 -2.673,-2.45 -5.198,-3.874l-2.906,-1.681c-3.589,-2.05 -6.119,-3.982 -7.591,-5.796c-1.471,-1.813 -2.207,-3.926 -2.207,-6.337c0,-3.248 1.178,-5.92 3.532,-8.018c2.355,-2.099 5.355,-3.148 9.001,-3.148c3.247,0 6.674,0.541 10.282,1.624l-0,5.468c-4.443,-1.747 -7.757,-2.62 -9.941,-2.62c-2.069,-0 -3.778,0.551 -5.127,1.652c-1.348,1.101 -2.022,2.488 -2.022,4.159c0,1.405 0.494,2.648 1.481,3.731c0.988,1.082 2.792,2.373 5.412,3.874l3.019,1.708c3.646,2.07 6.191,4.026 7.634,5.868c1.443,1.842 2.164,4.054 2.164,6.637c0,3.664 -1.353,6.608 -4.058,8.829c-2.706,2.222 -6.29,3.333 -10.753,3.333Zm32.613,-0.342c-2.848,0 -5.07,-0.816 -6.665,-2.45c-1.595,-1.633 -2.392,-3.902 -2.392,-6.807l-0,-18.172l-3.874,-0l0,-4.216l3.874,0l-0,-5.611l5.611,-0.541l0,6.152l8.089,0l0,4.216l-8.089,-0l0,17.147c0,4.044 1.747,6.067 5.241,6.067c0.741,-0 1.642,-0.124 2.706,-0.371l-0,3.874c-1.728,0.475 -3.228,0.712 -4.501,0.712Zm12.618,8.431l0,-2.108c1.823,-0.512 2.735,-2.668 2.735,-6.465l-0,-0.57l-2.735,-0l0,-7.035l7.036,-0l-0,6.095c-0,6.247 -2.345,9.608 -7.036,10.083Zm58.02,-25.264l-7.177,-18.173l-7.206,18.173l14.383,-0Zm6.324,16.121l-4.586,-11.678l-17.859,0l-4.643,11.678l-5.554,-0l16.72,-42.155l5.924,-0l16.463,42.155l-6.465,-0Zm12.817,9.143l0,-2.108c1.823,-0.512 2.734,-2.668 2.734,-6.465l0,-0.57l-2.734,-0l0,-7.035l7.036,-0l-0,6.095c-0,6.247 -2.346,9.608 -7.036,10.083Zm36.658,-9.143l-0,-42.155l8.288,-0l11.678,32.613l12.02,-32.613l7.406,-0l-0,42.155l-5.583,-0l0,-34.294l-11.621,31.474l-5.782,-0l-11.279,-31.559l-0,34.379l-5.127,-0Z" style="fill:#262626;fill-rule:nonzero;"/></g><g><path d="M1583.33,1235.42l0,-1018.75" style="fill:none;fill-rule:nonzero;stroke:#262626;stroke-width:2.08px;stroke-linecap:square;"/></g><g><path d="M1550.56,1250.75c-3.106,-0 -5.619,-1.462 -7.538,-4.385c-1.919,-2.922 -2.879,-6.737 -2.879,-11.444c-0,-4.747 0.966,-8.565 2.899,-11.454c1.933,-2.889 4.479,-4.333 7.64,-4.333c3.16,-0 5.707,1.444 7.639,4.333c1.933,2.889 2.899,6.687 2.899,11.393c0.001,4.829 -0.966,8.684 -2.899,11.567c-1.932,2.882 -4.52,4.323 -7.761,4.323Zm0.04,-3.011c4.246,-0 6.368,-4.314 6.368,-12.94c0,-8.436 -2.095,-12.655 -6.286,-12.655c-4.178,0 -6.266,4.259 -6.266,12.777c-0,8.545 2.061,12.818 6.184,12.818Z" style="fill:#262626;fill-rule:nonzero;"/></g><g><path d="M1513.06,1153.73c-3.106,0 -5.619,-1.461 -7.538,-4.384c-1.919,-2.923 -2.879,-6.738 -2.879,-11.445c-0,-4.747 0.966,-8.565 2.899,-11.454c1.933,-2.889 4.479,-4.333 7.64,-4.333c3.16,-0 5.707,1.444 7.639,4.333c1.933,2.889 2.899,6.687 2.899,11.394c0.001,4.828 -0.966,8.684 -2.899,11.566c-1.932,2.882 -4.52,4.323 -7.761,4.323Zm0.04,-3.011c4.246,-0 6.368,-4.313 6.368,-12.94c0,-8.436 -2.095,-12.654 -6.286,-12.654c-4.178,-0 -6.266,4.259 -6.266,12.776c-0,8.545 2.061,12.818 6.184,12.818Zm17.314,2.258l-0,-5.025l5.025,-0l0,5.025l-5.025,0Zm15.381,0l-0,-3.011l6.022,-0l-0,-23.763l-6.022,1.505l-0,-3.092l10.05,-2.502l0,27.852l6.022,-0l0,3.011l-16.072,0Z" style="fill:#262626;fill-rule:nonzero;"/></g><g><path d="M1513.06,1056.7c-3.106,0 -5.619,-1.461 -7.538,-4.384c-1.919,-2.923 -2.879,-6.738 -2.879,-11.444c-0,-4.747 0.966,-8.565 2.899,-11.455c1.933,-2.888 4.479,-4.333 7.64,-4.333c3.16,0 5.707,1.445 7.639,4.333c1.933,2.89 2.899,6.687 2.899,11.394c0.001,4.828 -0.966,8.684 -2.899,11.566c-1.932,2.882 -4.52,4.323 -7.761,4.323Zm0.04,-3.011c4.246,0 6.368,-4.313 6.368,-12.939c0,-8.437 -2.095,-12.655 -6.286,-12.655c-4.178,-0 -6.266,4.259 -6.266,12.777c-0,8.545 2.061,12.817 6.184,12.817Zm17.314,2.258l-0,-5.025l5.025,0l0,5.025l-5.025,0Zm12.573,0l0,-3.519c1.167,-2.726 3.527,-5.697 7.08,-8.911l2.299,-2.055c2.957,-2.672 4.435,-5.324 4.435,-7.955c0,-1.682 -0.505,-3.004 -1.515,-3.967c-1.011,-0.963 -2.398,-1.445 -4.161,-1.445c-2.089,-0 -4.55,0.807 -7.385,2.421l-0,-3.54c2.672,-1.261 5.324,-1.892 7.955,-1.892c2.821,0 5.086,0.76 6.795,2.278c1.709,1.52 2.563,3.534 2.563,6.043c0,1.804 -0.43,3.405 -1.291,4.802c-0.862,1.397 -2.466,3.092 -4.812,5.086l-1.546,1.322c-3.215,2.727 -5.073,5.331 -5.575,7.813l13.082,-0l-0,3.519l-17.924,0Z" style="fill:#262626;fill-rule:nonzero;"/></g><g><path d="M1513.06,959.682c-3.106,-0 -5.619,-1.462 -7.538,-4.385c-1.919,-2.923 -2.879,-6.737 -2.879,-11.444c-0,-4.747 0.966,-8.565 2.899,-11.454c1.933,-2.889 4.479,-4.334 7.64,-4.334c3.16,0 5.707,1.445 7.639,4.334c1.933,2.889 2.899,6.687 2.899,11.393c0.001,4.829 -0.966,8.684 -2.899,11.566c-1.932,2.883 -4.52,4.324 -7.761,4.324Zm0.04,-3.012c4.246,0 6.368,-4.313 6.368,-12.939c0,-8.437 -2.095,-12.655 -6.286,-12.655c-4.178,0 -6.266,4.259 -6.266,12.777c-0,8.545 2.061,12.817 6.184,12.817Zm17.314,2.259l-0,-5.026l5.025,0l0,5.026l-5.025,-0Zm13.346,-0.224l0,-3.743c2.876,1.139 5.141,1.708 6.796,1.708c1.912,0 3.468,-0.559 4.669,-1.678c1.2,-1.119 1.8,-2.567 1.8,-4.344c0,-4.231 -2.964,-6.347 -8.891,-6.347l-1.586,-0l-0,-2.706l1.403,-0.02c5.561,-0 8.342,-1.96 8.342,-5.88c-0,-3.079 -1.831,-4.619 -5.493,-4.619c-2.008,0 -4.219,0.563 -6.633,1.689l0,-3.499c2.374,-0.8 4.679,-1.201 6.917,-1.201c6.158,0 9.237,2.327 9.237,6.979c-0,3.54 -2.096,6.063 -6.286,7.568c4.855,1.126 7.283,3.784 7.283,7.975c0,2.835 -0.936,5.06 -2.807,6.673c-1.872,1.615 -4.443,2.422 -7.711,2.422c-1.859,-0 -4.205,-0.326 -7.04,-0.977Z" style="fill:#262626;fill-rule:nonzero;"/></g><g><path d="M1513.06,862.658c-3.106,-0 -5.619,-1.462 -7.538,-4.385c-1.919,-2.923 -2.879,-6.738 -2.879,-11.444c-0,-4.747 0.966,-8.565 2.899,-11.454c1.933,-2.889 4.479,-4.334 7.64,-4.334c3.16,0 5.707,1.445 7.639,4.334c1.933,2.889 2.899,6.687 2.899,11.393c0.001,4.829 -0.966,8.684 -2.899,11.566c-1.932,2.882 -4.52,4.323 -7.761,4.323Zm0.04,-3.011c4.246,0 6.368,-4.313 6.368,-12.939c0,-8.437 -2.095,-12.655 -6.286,-12.655c-4.178,0 -6.266,4.259 -6.266,12.777c-0,8.545 2.061,12.817 6.184,12.817Zm17.314,2.259l-0,-5.026l5.025,0l0,5.026l-5.025,-0Zm24.801,-0l-0,-8.525l-13.55,-0l-0,-3.031l13.55,-18.555l3.763,-0l0,18.311l4.029,-0l-0,3.275l-4.029,-0l0,8.525l-3.763,-0Zm-9.624,-11.8l9.888,-0l-0,-13.388l-9.888,13.388Z" style="fill:#262626;fill-rule:nonzero;"/></g><g><path d="M1513.06,765.634c-3.106,-0 -5.619,-1.462 -7.538,-4.385c-1.919,-2.923 -2.879,-6.737 -2.879,-11.444c-0,-4.747 0.966,-8.565 2.899,-11.454c1.933,-2.889 4.479,-4.333 7.64,-4.333c3.16,-0 5.707,1.444 7.639,4.333c1.933,2.889 2.899,6.687 2.899,11.393c0.001,4.829 -0.966,8.684 -2.899,11.566c-1.932,2.883 -4.52,4.324 -7.761,4.324Zm0.04,-3.011c4.246,-0 6.368,-4.314 6.368,-12.94c0,-8.436 -2.095,-12.655 -6.286,-12.655c-4.178,0 -6.266,4.259 -6.266,12.777c-0,8.545 2.061,12.817 6.184,12.817Zm17.314,2.259l-0,-5.026l5.025,0l0,5.026l-5.025,-0Zm14.18,0.122l0,-3.581c1.994,0.8 3.893,1.201 5.697,1.201c1.98,-0 3.537,-0.584 4.669,-1.75c1.133,-1.166 1.699,-2.774 1.699,-4.822c-0,-4.516 -3.113,-6.775 -9.339,-6.775c-0.705,0 -1.444,0.048 -2.217,0.143l0,-14.649l15.238,-0l0,3.5l-11.718,-0l-0,7.934c3.865,0 6.883,0.888 9.053,2.665c2.17,1.777 3.255,4.239 3.255,7.386c0,2.929 -0.986,5.225 -2.96,6.886c-1.973,1.662 -4.71,2.493 -8.209,2.493c-1.519,-0 -3.242,-0.211 -5.168,-0.631Z" style="fill:#262626;fill-rule:nonzero;"/></g><g><path d="M1513.06,668.61c-3.106,0 -5.619,-1.462 -7.538,-4.385c-1.919,-2.922 -2.879,-6.737 -2.879,-11.444c-0,-4.747 0.966,-8.565 2.899,-11.454c1.933,-2.889 4.479,-4.333 7.64,-4.333c3.16,-0 5.707,1.444 7.639,4.333c1.933,2.889 2.899,6.687 2.899,11.393c0.001,4.829 -0.966,8.684 -2.899,11.567c-1.932,2.882 -4.52,4.323 -7.761,4.323Zm0.04,-3.011c4.246,-0 6.368,-4.313 6.368,-12.94c0,-8.436 -2.095,-12.654 -6.286,-12.654c-4.178,-0 -6.266,4.258 -6.266,12.776c-0,8.545 2.061,12.818 6.184,12.818Zm17.314,2.258l-0,-5.025l5.025,-0l0,5.025l-5.025,0Zm16.276,-15.605c1.912,-2.482 4.32,-3.723 7.223,-3.723c2.631,0 4.784,0.872 6.459,2.615c1.675,1.743 2.513,3.977 2.513,6.703c-0,3.134 -0.94,5.711 -2.818,7.731c-1.879,2.021 -4.263,3.032 -7.151,3.032c-3.324,-0 -5.921,-1.336 -7.793,-4.008c-1.872,-2.672 -2.807,-6.382 -2.807,-11.129c-0,-5.222 1.075,-9.277 3.225,-12.166c2.149,-2.889 5.177,-4.334 9.084,-4.334c1.79,0 4.028,0.38 6.713,1.139l0,3.5c-2.834,-1.085 -5.154,-1.628 -6.957,-1.628c-5.127,0 -7.691,4.09 -7.691,12.269Zm12.166,6.49c0,-2.279 -0.512,-4.07 -1.536,-5.372c-1.024,-1.302 -2.444,-1.953 -4.262,-1.953c-1.696,0 -3.154,0.57 -4.374,1.709c-1.221,1.14 -1.831,2.51 -1.831,4.11c-0,2.523 0.579,4.547 1.739,6.073c1.16,1.526 2.696,2.289 4.609,2.289c1.722,-0 3.095,-0.621 4.119,-1.862c1.024,-1.241 1.536,-2.906 1.536,-4.995Z" style="fill:#262626;fill-rule:nonzero;"/></g><g><path d="M1513.06,571.586c-3.106,0 -5.619,-1.461 -7.538,-4.384c-1.919,-2.923 -2.879,-6.738 -2.879,-11.444c-0,-4.747 0.966,-8.566 2.899,-11.455c1.933,-2.889 4.479,-4.333 7.64,-4.333c3.16,0 5.707,1.444 7.639,4.333c1.933,2.889 2.899,6.687 2.899,11.394c0.001,4.828 -0.966,8.684 -2.899,11.566c-1.932,2.882 -4.52,4.323 -7.761,4.323Zm0.04,-3.011c4.246,0 6.368,-4.313 6.368,-12.94c0,-8.436 -2.095,-12.654 -6.286,-12.654c-4.178,-0 -6.266,4.259 -6.266,12.777c-0,8.544 2.061,12.817 6.184,12.817Zm17.314,2.258l-0,-5.025l5.025,-0l0,5.025l-5.025,0Zm15.381,0c0.393,-2.346 0.952,-4.374 1.678,-6.083c0.726,-1.709 2.011,-4.055 3.855,-7.039l8.22,-13.224l-15.503,-0l0,-3.765l19.328,0l-0,3.765c-7.718,11.379 -12.038,20.161 -12.96,26.346l-4.618,0Z" style="fill:#262626;fill-rule:nonzero;"/></g><g><path d="M1513.06,474.563c-3.106,-0 -5.619,-1.462 -7.538,-4.385c-1.919,-2.923 -2.879,-6.738 -2.879,-11.444c-0,-4.747 0.966,-8.565 2.899,-11.454c1.933,-2.889 4.479,-4.334 7.64,-4.334c3.16,0 5.707,1.445 7.639,4.334c1.933,2.889 2.899,6.687 2.899,11.393c0.001,4.829 -0.966,8.684 -2.899,11.566c-1.932,2.882 -4.52,4.324 -7.761,4.324Zm0.04,-3.012c4.246,0 6.368,-4.313 6.368,-12.939c0,-8.437 -2.095,-12.655 -6.286,-12.655c-4.178,0 -6.266,4.259 -6.266,12.777c-0,8.545 2.061,12.817 6.184,12.817Zm17.314,2.259l-0,-5.026l5.025,0l0,5.026l-5.025,-0Zm18.697,-16.398c-2.943,-2.049 -4.415,-4.314 -4.415,-6.796c-0,-2.278 0.834,-4.13 2.502,-5.554c1.669,-1.424 3.846,-2.136 6.531,-2.136c2.482,-0 4.493,0.603 6.033,1.811c1.539,1.207 2.309,2.773 2.309,4.699c-0,2.916 -1.872,5.575 -5.615,7.976c4.543,2.224 6.815,5.092 6.815,8.606c-0,2.522 -0.953,4.577 -2.858,6.164c-1.906,1.587 -4.364,2.381 -7.375,2.381c-2.957,-0 -5.348,-0.75 -7.172,-2.249c-1.824,-1.498 -2.736,-3.468 -2.736,-5.91c-0,-3.608 1.993,-6.605 5.981,-8.992Zm5.107,-1.262c2.807,-1.844 4.211,-3.899 4.211,-6.165c-0,-1.207 -0.468,-2.18 -1.404,-2.919c-0.936,-0.739 -2.17,-1.109 -3.702,-1.109c-1.479,0 -2.679,0.363 -3.602,1.089c-0.922,0.725 -1.383,1.665 -1.383,2.817c0,1.126 0.417,2.133 1.251,3.022c0.834,0.888 2.377,1.977 4.629,3.265Zm-2.93,2.889c-1.614,1.248 -2.709,2.336 -3.286,3.266c-0.576,0.928 -0.864,2.085 -0.864,3.468c-0,1.723 0.556,3.116 1.668,4.181c1.112,1.065 2.577,1.597 4.395,1.597c1.749,0 3.176,-0.454 4.282,-1.363c1.105,-0.909 1.658,-2.089 1.658,-3.54c-0,-1.166 -0.342,-2.153 -1.027,-2.96c-0.685,-0.807 -2.011,-1.794 -3.978,-2.96l-2.848,-1.689Z" style="fill:#262626;fill-rule:nonzero;"/></g><g><path d="M1513.06,377.539c-3.106,-0 -5.619,-1.462 -7.538,-4.385c-1.919,-2.923 -2.879,-6.737 -2.879,-11.444c-0,-4.747 0.966,-8.565 2.899,-11.454c1.933,-2.889 4.479,-4.333 7.64,-4.333c3.16,-0 5.707,1.444 7.639,4.333c1.933,2.889 2.899,6.687 2.899,11.393c0.001,4.829 -0.966,8.684 -2.899,11.566c-1.932,2.883 -4.52,4.324 -7.761,4.324Zm0.04,-3.011c4.246,-0 6.368,-4.314 6.368,-12.94c0,-8.436 -2.095,-12.655 -6.286,-12.655c-4.178,0 -6.266,4.259 -6.266,12.777c-0,8.545 2.061,12.818 6.184,12.818Zm17.314,2.258l-0,-5.026l5.025,0l0,5.026l-5.025,-0Zm13.855,-0.183l-0,-3.398c2.55,0.882 4.72,1.323 6.51,1.323c2.496,-0 4.446,-1.062 5.849,-3.185c1.404,-2.122 2.106,-5.075 2.106,-8.86c-2.034,2.51 -4.347,3.764 -6.938,3.764c-2.536,0 -4.685,-0.932 -6.449,-2.797c-1.763,-1.865 -2.645,-4.141 -2.645,-6.826c0,-3.079 0.939,-5.632 2.818,-7.66c1.879,-2.028 4.242,-3.041 7.091,-3.041c3.268,-0 5.845,1.312 7.73,3.936c1.886,2.625 2.828,6.215 2.828,10.773c0,5.181 -1.149,9.294 -3.448,12.339c-2.299,3.045 -5.408,4.568 -9.328,4.568c-1.574,-0 -3.615,-0.312 -6.124,-0.936Zm2.441,-20.773c0,2.333 0.519,4.171 1.557,5.514c1.037,1.343 2.458,2.014 4.262,2.014c1.695,-0 3.143,-0.576 4.344,-1.729c1.2,-1.153 1.8,-2.543 1.8,-4.171c0,-2.563 -0.58,-4.628 -1.739,-6.195c-1.16,-1.567 -2.682,-2.35 -4.568,-2.35c-1.749,-0 -3.13,0.62 -4.14,1.862c-1.011,1.241 -1.516,2.926 -1.516,5.055Z" style="fill:#262626;fill-rule:nonzero;"/></g><g><path d="M1543.77,279.762l0,-3.011l6.022,-0l0,-23.763l-6.022,1.505l0,-3.092l10.051,-2.502l-0,27.852l6.022,-0l-0,3.011l-16.073,0Z" style="fill:#262626;fill-rule:nonzero;"/></g><g><path d="M1470.83,990.657l-48.177,0l0,-9.472l37.272,-13.347l-37.272,-13.737l0,-8.464l48.177,0l0,6.381l-39.192,-0l35.97,13.281l-0,6.608l-36.068,12.891l39.29,-0l0,5.859Zm0.814,-71.452c0,5.057 -1.676,9.093 -5.029,12.11c-3.353,3.016 -7.84,4.525 -13.461,4.525c-5.685,-0 -10.183,-1.514 -13.492,-4.542c-3.31,-3.027 -4.965,-7.134 -4.965,-12.32c0,-5.187 1.655,-9.294 4.965,-12.321c3.309,-3.028 7.785,-4.542 13.427,-4.542c5.773,0 10.309,1.52 13.607,4.558c3.299,3.038 4.948,7.215 4.948,12.532Zm-4.817,-0.097c-0,-6.793 -4.579,-10.189 -13.738,-10.189c-9.049,-0 -13.574,3.353 -13.574,10.059c0,6.683 4.547,10.025 13.639,10.025c9.115,0 13.673,-3.298 13.673,-9.895Zm4.003,-49.708l-6.64,0c4.969,2.605 7.454,6.533 7.454,11.785c0,4.253 -1.552,7.6 -4.655,10.042c-3.103,2.441 -7.346,3.662 -12.728,3.662c-5.881,-0 -10.612,-1.384 -14.192,-4.151c-3.581,-2.767 -5.372,-6.407 -5.372,-10.921c0,-4.188 1.606,-7.66 4.818,-10.417l-20.084,0l-0,-6.445l51.399,0l0,6.445Zm-26.92,0c-2.93,3.321 -4.395,6.468 -4.395,9.441c0,6.141 4.699,9.212 14.095,9.212c8.269,-0 12.403,-2.734 12.403,-8.203c-0,-3.559 -1.943,-7.042 -5.827,-10.45l-16.276,0Zm25.781,-45.182c1.302,4.297 1.953,7.976 1.953,11.035c0,5.209 -1.731,9.457 -5.192,12.745c-3.461,3.287 -7.948,4.931 -13.46,4.931c-5.36,0 -9.755,-1.448 -13.184,-4.345c-3.429,-2.897 -5.143,-6.603 -5.143,-11.117c-0,-4.275 1.519,-7.579 4.557,-9.912c3.038,-2.333 7.357,-3.5 12.956,-3.5l1.986,0.033l-0,22.298c8.398,-0.933 12.597,-5.045 12.597,-12.337c0,-2.669 -0.716,-5.946 -2.148,-9.831l5.078,0Zm-20.345,21.875l0,-15.592c-6.575,-0 -9.863,2.452 -9.863,7.357c-0,4.926 3.288,7.671 9.863,8.235Zm21.484,-33.105l-51.399,-0l-0,-6.413l51.399,0l0,6.413Zm-30.533,-48.014l30.533,-0l0,6.445l-30.533,-0l-0,5.013l-4.818,0l-0,-5.013l-4.232,-0c-8.42,-0 -12.63,-3.841 -12.63,-11.524c0,-2.148 0.358,-4.589 1.074,-7.324l5.078,0c-0.89,2.886 -1.334,5.197 -1.334,6.934c-0,2.105 0.504,3.543 1.513,4.313c1.009,0.77 2.881,1.156 5.615,1.156l4.916,-0l-0,-8.822l4.818,0l-0,8.822Zm30.533,-16.862l-35.351,-0l-0,-6.413l6.641,-0c-4.949,-2.539 -7.423,-6.228 -7.423,-11.068c0,-0.651 0.055,-1.334 0.163,-2.051l5.99,0c-0.369,1.107 -0.553,2.084 -0.553,2.93c-0,4.058 2.408,7.454 7.226,10.189l23.307,-0l0,6.413Zm-1.139,-53.191c1.302,4.297 1.953,7.976 1.953,11.036c0,5.208 -1.731,9.456 -5.192,12.744c-3.461,3.288 -7.948,4.932 -13.46,4.932c-5.36,-0 -9.755,-1.449 -13.184,-4.346c-3.429,-2.898 -5.143,-6.603 -5.143,-11.117c-0,-4.275 1.519,-7.579 4.557,-9.912c3.038,-2.333 7.357,-3.499 12.956,-3.499l1.986,0.032l-0,22.299c8.398,-0.934 12.597,-5.046 12.597,-12.338c0,-2.669 -0.716,-5.946 -2.148,-9.831l5.078,0Zm-20.345,21.875l0,-15.592c-6.575,0 -9.863,2.452 -9.863,7.357c-0,4.926 3.288,7.671 9.863,8.235Zm34.342,-55.794l-19.498,0c4.969,2.604 7.454,6.532 7.454,11.784c0,4.254 -1.552,7.601 -4.655,10.042c-3.103,2.442 -7.346,3.662 -12.728,3.662c-5.881,0 -10.612,-1.383 -14.192,-4.15c-3.581,-2.767 -5.372,-6.407 -5.372,-10.921c0,-4.189 1.606,-7.661 4.818,-10.417l-4.036,0l-0,-6.445l48.209,0l0,6.445Zm-39.778,0c-2.93,3.32 -4.395,6.467 -4.395,9.44c0,6.142 4.699,9.213 14.095,9.213c8.269,-0 12.403,-2.735 12.403,-8.204c-0,-3.559 -1.943,-7.042 -5.827,-10.449l-16.276,0Zm26.92,-41.374l-6.64,0c4.969,3.408 7.454,7.542 7.454,12.403c0,3.082 -0.971,5.534 -2.913,7.357c-1.942,1.823 -4.563,2.734 -7.861,2.734l-25.391,0l-0,-6.413l23.307,0c2.648,0 4.53,-0.385 5.648,-1.155c1.117,-0.771 1.676,-2.057 1.676,-3.858c0,-3.906 -2.571,-7.595 -7.715,-11.068l-22.916,0l-0,-6.412l35.351,-0l0,6.412Zm-1.139,-45.182c1.302,4.297 1.953,7.976 1.953,11.035c0,5.209 -1.731,9.457 -5.192,12.744c-3.461,3.288 -7.948,4.932 -13.46,4.932c-5.36,0 -9.755,-1.449 -13.184,-4.346c-3.429,-2.897 -5.143,-6.602 -5.143,-11.116c-0,-4.275 1.519,-7.579 4.557,-9.912c3.038,-2.333 7.357,-3.5 12.956,-3.5l1.986,0.033l-0,22.298c8.398,-0.933 12.597,-5.045 12.597,-12.337c0,-2.669 -0.716,-5.946 -2.148,-9.831l5.078,0Zm-20.345,21.875l0,-15.592c-6.575,-0 -9.863,2.452 -9.863,7.356c-0,4.927 3.288,7.672 9.863,8.236Zm21.484,-33.105l-35.351,-0l-0,-6.413l6.641,-0c-4.949,-3.385 -7.423,-7.53 -7.423,-12.435c0,-3.06 0.972,-5.501 2.914,-7.324c1.942,-1.823 4.552,-2.734 7.829,-2.734l25.39,-0l0,6.412l-23.307,0c-2.626,0 -4.498,0.385 -5.615,1.156c-1.118,0.77 -1.677,2.045 -1.677,3.825c0,3.928 2.572,7.628 7.715,11.1l22.884,-0l0,6.413Zm0.814,-55.176c0,4.774 -1.769,8.735 -5.306,11.881c-3.537,3.147 -7.997,4.721 -13.379,4.721c-5.751,-0 -10.232,-1.557 -13.444,-4.672c-3.212,-3.114 -4.818,-7.459 -4.818,-13.037c0,-2.756 0.38,-5.837 1.14,-9.245l5.371,0c-1.063,3.624 -1.595,6.576 -1.595,8.854c-0,3.277 1.231,5.909 3.694,7.894c2.463,1.986 5.746,2.979 9.848,2.979c3.971,-0 7.183,-1.02 9.635,-3.06c2.452,-2.04 3.678,-4.709 3.678,-8.008c0,-2.929 -0.748,-5.946 -2.246,-9.049l5.534,-0c1.259,4.145 1.888,7.726 1.888,10.742Zm12.044,-22.396l-12.858,-5.729l-35.351,13.672l-0,-6.934l26.627,-10.123l-26.627,-10.808l-0,-6.055l48.209,19.304l0,6.673Z" style="fill:#262626;fill-rule:nonzero;"/></g></g></svg>